<svg xmlns="http://www.w3.org/2000/svg" xmlns:xlink="http://www.w3.org/1999/xlink" width="138" zoomAndPan="magnify" viewBox="0 0 103.5 32.999998" height="44" preserveAspectRatio="xMidYMid meet" version="1.0"><defs><g/><clipPath id="71235e2203"><path d="M 0 0.078125 L 32.839844 0.078125 L 32.839844 32.917969 L 0 32.917969 Z M 0 0.078125 " clip-rule="nonzero"/></clipPath></defs><g fill="#ffffff" fill-opacity="1"><g transform="translate(36.9815, 19.862292)"><g><path d="M 0.34375 -3.625 C 0.34375 -4.34375 0.492188 -4.976562 0.796875 -5.53125 C 1.109375 -6.09375 1.539062 -6.53125 2.09375 -6.84375 C 2.644531 -7.15625 3.269531 -7.3125 3.96875 -7.3125 C 4.832031 -7.3125 5.566406 -7.082031 6.171875 -6.625 C 6.785156 -6.175781 7.195312 -5.5625 7.40625 -4.78125 L 5.46875 -4.78125 C 5.320312 -5.082031 5.113281 -5.3125 4.84375 -5.46875 C 4.582031 -5.625 4.285156 -5.703125 3.953125 -5.703125 C 3.410156 -5.703125 2.96875 -5.515625 2.625 -5.140625 C 2.289062 -4.765625 2.125 -4.257812 2.125 -3.625 C 2.125 -2.988281 2.289062 -2.484375 2.625 -2.109375 C 2.96875 -1.734375 3.410156 -1.546875 3.953125 -1.546875 C 4.285156 -1.546875 4.582031 -1.625 4.84375 -1.78125 C 5.113281 -1.9375 5.320312 -2.164062 5.46875 -2.46875 L 7.40625 -2.46875 C 7.195312 -1.6875 6.785156 -1.070312 6.171875 -0.625 C 5.566406 -0.175781 4.832031 0.046875 3.96875 0.046875 C 3.269531 0.046875 2.644531 -0.109375 2.09375 -0.421875 C 1.539062 -0.734375 1.109375 -1.164062 0.796875 -1.71875 C 0.492188 -2.269531 0.34375 -2.90625 0.34375 -3.625 Z M 0.34375 -3.625 "/></g></g></g><g fill="#ffffff" fill-opacity="1"><g transform="translate(44.819653, 19.862292)"><g><path d="M 5.140625 -1.28125 L 2.4375 -1.28125 L 2.015625 0 L 0.171875 0 L 2.78125 -7.234375 L 4.8125 -7.234375 L 7.4375 0 L 5.578125 0 Z M 4.6875 -2.640625 L 3.796875 -5.28125 L 2.90625 -2.640625 Z M 4.6875 -2.640625 "/></g></g></g><g fill="#ffffff" fill-opacity="1"><g transform="translate(52.400652, 19.862292)"><g><path d="M 7.421875 -7.234375 L 4.859375 0 L 2.65625 0 L 0.09375 -7.234375 L 1.96875 -7.234375 L 3.765625 -1.765625 L 5.5625 -7.234375 Z M 7.421875 -7.234375 "/></g></g></g><g fill="#ffffff" fill-opacity="1"><g transform="translate(59.909637, 19.862292)"><g><path d="M 2.40625 -5.8125 L 2.40625 -4.359375 L 4.75 -4.359375 L 4.75 -3 L 2.40625 -3 L 2.40625 -1.40625 L 5.0625 -1.40625 L 5.0625 0 L 0.640625 0 L 0.640625 -7.234375 L 5.0625 -7.234375 L 5.0625 -5.8125 Z M 2.40625 -5.8125 "/></g></g></g><g fill="#ffffff" fill-opacity="1"><g transform="translate(65.47452, 19.862292)"><g><path d="M 3.25 0.078125 C 2.726562 0.078125 2.253906 -0.00390625 1.828125 -0.171875 C 1.410156 -0.347656 1.078125 -0.601562 0.828125 -0.9375 C 0.578125 -1.28125 0.445312 -1.6875 0.4375 -2.15625 L 2.3125 -2.15625 C 2.332031 -1.894531 2.421875 -1.691406 2.578125 -1.546875 C 2.742188 -1.410156 2.953125 -1.34375 3.203125 -1.34375 C 3.460938 -1.34375 3.664062 -1.398438 3.8125 -1.515625 C 3.96875 -1.640625 4.046875 -1.804688 4.046875 -2.015625 C 4.046875 -2.191406 3.984375 -2.335938 3.859375 -2.453125 C 3.742188 -2.578125 3.597656 -2.675781 3.421875 -2.75 C 3.242188 -2.820312 2.992188 -2.90625 2.671875 -3 C 2.210938 -3.144531 1.832031 -3.289062 1.53125 -3.4375 C 1.238281 -3.582031 0.984375 -3.796875 0.765625 -4.078125 C 0.554688 -4.359375 0.453125 -4.722656 0.453125 -5.171875 C 0.453125 -5.847656 0.695312 -6.375 1.1875 -6.75 C 1.675781 -7.132812 2.3125 -7.328125 3.09375 -7.328125 C 3.882812 -7.328125 4.523438 -7.132812 5.015625 -6.75 C 5.503906 -6.375 5.765625 -5.847656 5.796875 -5.171875 L 3.890625 -5.171875 C 3.878906 -5.398438 3.789062 -5.582031 3.625 -5.71875 C 3.46875 -5.851562 3.269531 -5.921875 3.03125 -5.921875 C 2.8125 -5.921875 2.632812 -5.863281 2.5 -5.75 C 2.375 -5.632812 2.3125 -5.472656 2.3125 -5.265625 C 2.3125 -5.023438 2.421875 -4.835938 2.640625 -4.703125 C 2.859375 -4.578125 3.203125 -4.441406 3.671875 -4.296875 C 4.140625 -4.140625 4.519531 -3.988281 4.8125 -3.84375 C 5.101562 -3.695312 5.351562 -3.484375 5.5625 -3.203125 C 5.78125 -2.929688 5.890625 -2.582031 5.890625 -2.15625 C 5.890625 -1.738281 5.785156 -1.363281 5.578125 -1.03125 C 5.367188 -0.695312 5.0625 -0.425781 4.65625 -0.21875 C 4.257812 -0.0195312 3.789062 0.078125 3.25 0.078125 Z M 3.25 0.078125 "/></g></g></g><g fill="#ffffff" fill-opacity="1"><g transform="translate(71.800591, 19.862292)"><g/></g></g><g fill="#ffffff" fill-opacity="1"><g transform="translate(73.98128, 19.862292)"><g><path d="M 2.40625 -1.359375 L 4.703125 -1.359375 L 4.703125 0 L 0.640625 0 L 0.640625 -7.234375 L 2.40625 -7.234375 Z M 2.40625 -1.359375 "/></g></g></g><g fill="#ffffff" fill-opacity="1"><g transform="translate(78.88784, 19.862292)"><g><path d="M 5.140625 -1.28125 L 2.4375 -1.28125 L 2.015625 0 L 0.171875 0 L 2.78125 -7.234375 L 4.8125 -7.234375 L 7.4375 0 L 5.578125 0 Z M 4.6875 -2.640625 L 3.796875 -5.28125 L 2.90625 -2.640625 Z M 4.6875 -2.640625 "/></g></g></g><g fill="#ffffff" fill-opacity="1"><g transform="translate(86.468839, 19.862292)"><g><path d="M 7.109375 0 L 5.34375 0 L 2.40625 -4.453125 L 2.40625 0 L 0.640625 0 L 0.640625 -7.234375 L 2.40625 -7.234375 L 5.34375 -2.75 L 5.34375 -7.234375 L 7.109375 -7.234375 Z M 7.109375 0 "/></g></g></g><g fill="#ffffff" fill-opacity="1"><g transform="translate(94.204125, 19.862292)"><g><path d="M 3.34375 -7.234375 C 4.101562 -7.234375 4.769531 -7.082031 5.34375 -6.78125 C 5.914062 -6.476562 6.359375 -6.050781 6.671875 -5.5 C 6.984375 -4.957031 7.140625 -4.328125 7.140625 -3.609375 C 7.140625 -2.898438 6.984375 -2.269531 6.671875 -1.71875 C 6.359375 -1.175781 5.914062 -0.753906 5.34375 -0.453125 C 4.769531 -0.148438 4.101562 0 3.34375 0 L 0.640625 0 L 0.640625 -7.234375 Z M 3.234375 -1.53125 C 3.898438 -1.53125 4.414062 -1.707031 4.78125 -2.0625 C 5.15625 -2.425781 5.34375 -2.941406 5.34375 -3.609375 C 5.34375 -4.273438 5.15625 -4.789062 4.78125 -5.15625 C 4.414062 -5.53125 3.898438 -5.71875 3.234375 -5.71875 L 2.40625 -5.71875 L 2.40625 -1.53125 Z M 3.234375 -1.53125 "/></g></g></g><g clip-path="url(#71235e2203)"><path fill="#eb6753" d="M 16.40625 0.078125 C 20.960938 0.078125 25.058594 1.898438 28.039062 4.878906 C 30.996094 7.863281 32.839844 11.960938 32.839844 16.488281 C 32.839844 21.011719 30.996094 25.136719 28.039062 28.09375 C 25.058594 31.074219 20.960938 32.921875 16.40625 32.921875 C 11.882812 32.921875 7.785156 31.074219 4.800781 28.09375 C 1.84375 25.136719 0 21.011719 0 16.488281 C 0 11.960938 1.84375 7.863281 4.808594 4.878906 C 7.789062 1.898438 11.882812 0.078125 16.40625 0.078125 Z M 27.480469 5.453125 C 24.625 2.621094 20.722656 0.867188 16.40625 0.867188 C 12.09375 0.867188 8.195312 2.621094 5.371094 5.445312 C 2.546875 8.269531 0.820312 12.171875 0.820312 16.480469 C 0.820312 20.789062 2.554688 24.695312 5.371094 27.515625 C 8.191406 30.359375 12.097656 32.09375 16.40625 32.09375 C 20.714844 32.09375 24.625 30.359375 27.46875 27.515625 C 30.285156 24.695312 32.019531 20.789062 32.019531 16.480469 C 32.019531 12.171875 30.300781 8.269531 27.480469 5.453125 Z M 27.480469 5.453125 " fill-opacity="1" fill-rule="nonzero"/></g><path fill="#eb6753" d="M 13.996094 30.804688 C 18.417969 25.519531 29.910156 19.554688 29.910156 19.554688 C 25.167969 22.917969 20.34375 28.238281 18.003906 30.917969 C 17.484375 30.96875 16.945312 30.996094 16.402344 30.996094 C 15.601562 30.996094 14.777344 30.9375 13.996094 30.804688 Z M 13.996094 30.804688 " fill-opacity="1" fill-rule="nonzero"/><path fill="#eb6753" d="M 9.039062 28.984375 C 14.753906 23.96875 29.242188 19.304688 29.242188 19.304688 C 21.761719 22.554688 14.707031 28.355469 12.316406 30.417969 C 11.152344 30.078125 10.0625 29.585938 9.039062 28.984375 Z M 9.039062 28.984375 " fill-opacity="1" fill-rule="nonzero"/><path fill="#eb6753" d="M 20.097656 30.53125 C 24.328125 24.460938 28.75 21.203125 30.488281 20.085938 C 29.832031 22.660156 28.507812 24.941406 26.695312 26.757812 C 24.894531 28.546875 22.628906 29.886719 20.097656 30.53125 Z M 20.097656 30.53125 " fill-opacity="1" fill-rule="nonzero"/><path fill="#eb6753" d="M 2.363281 20.09375 C 3.71875 20.984375 6.726562 23.128906 9.984375 26.957031 C 9.273438 27.421875 8.65625 27.902344 8.085938 28.367188 C 7.375 27.875 6.757812 27.34375 6.160156 26.765625 C 4.347656 24.945312 3.015625 22.667969 2.363281 20.09375 Z M 2.363281 20.09375 " fill-opacity="1" fill-rule="nonzero"/><path fill="#eb6753" d="M 2.9375 19.546875 C 2.9375 19.546875 7.902344 22.121094 12.566406 25.398438 C 11.941406 25.753906 11.351562 26.109375 10.746094 26.457031 C 8.433594 24.105469 5.675781 21.503906 2.9375 19.546875 Z M 2.9375 19.546875 " fill-opacity="1" fill-rule="nonzero"/><path fill="#eb6753" d="M 3.578125 19.304688 C 3.578125 19.304688 9.597656 21.230469 15.402344 23.941406 C 14.71875 24.269531 14.074219 24.597656 13.445312 24.941406 C 10.554688 22.9375 7.105469 20.847656 3.578125 19.304688 Z M 3.578125 19.304688 " fill-opacity="1" fill-rule="nonzero"/><path fill="#eb6753" d="M 9.550781 18.898438 C 9.550781 18.378906 9.601562 17.898438 9.714844 17.433594 L 1.964844 15.34375 C 1.9375 15.726562 1.910156 16.105469 1.910156 16.480469 C 1.910156 16.914062 1.9375 17.339844 1.964844 17.78125 L 3.019531 18.136719 L 3.882812 18.410156 C 4.855469 18.738281 5.839844 19.09375 6.8125 19.4375 C 7.113281 19.515625 7.382812 19.625 7.671875 19.738281 C 8.355469 19.980469 9.050781 20.257812 9.734375 20.527344 C 9.636719 20.015625 9.550781 19.441406 9.550781 18.898438 Z M 9.550781 18.898438 " fill-opacity="1" fill-rule="nonzero"/><path fill="#eb6753" d="M 2.011719 14.667969 L 9.871094 16.78125 C 9.984375 16.429688 10.148438 16.074219 10.304688 15.757812 L 2.824219 11.421875 C 2.417969 12.441406 2.148438 13.558594 2.011719 14.667969 Z M 2.011719 14.667969 " fill-opacity="1" fill-rule="nonzero"/><path fill="#eb6753" d="M 3.074219 10.785156 L 10.632812 15.148438 C 10.851562 14.84375 11.066406 14.550781 11.34375 14.253906 L 4.835938 7.746094 C 4.125 8.703125 3.527344 9.707031 3.074219 10.785156 Z M 3.074219 10.785156 " fill-opacity="1" fill-rule="nonzero"/><path fill="#eb6753" d="M 5.234375 7.246094 L 11.796875 13.808594 C 12.097656 13.5625 12.394531 13.3125 12.691406 13.125 L 7.863281 4.769531 C 7.265625 5.203125 6.699219 5.6875 6.15625 6.234375 C 5.832031 6.5625 5.535156 6.890625 5.234375 7.246094 Z M 5.234375 7.246094 " fill-opacity="1" fill-rule="nonzero"/><path fill="#eb6753" d="M 8.433594 4.363281 L 13.289062 12.769531 C 13.617188 12.605469 13.972656 12.46875 14.3125 12.335938 L 11.742188 2.734375 C 10.554688 3.140625 9.445312 3.683594 8.433594 4.363281 Z M 8.433594 4.363281 " fill-opacity="1" fill-rule="nonzero"/><path fill="#eb6753" d="M 12.402344 2.542969 L 14.976562 12.179688 C 15.332031 12.097656 15.710938 12.039062 16.085938 12.039062 L 16.085938 1.976562 C 14.804688 2.003906 13.5625 2.195312 12.402344 2.542969 Z M 12.402344 2.542969 " fill-opacity="1" fill-rule="nonzero"/><path fill="#eb6753" d="M 16.761719 1.976562 L 16.761719 12.039062 C 17.144531 12.039062 17.523438 12.09375 17.871094 12.179688 L 20.445312 2.550781 C 19.289062 2.195312 18.035156 2.003906 16.761719 1.976562 Z M 16.761719 1.976562 " fill-opacity="1" fill-rule="nonzero"/><path fill="#eb6753" d="M 21.105469 2.734375 L 18.527344 12.328125 C 18.882812 12.46875 19.238281 12.605469 19.554688 12.761719 L 24.40625 4.355469 C 23.375 3.683594 22.273438 3.140625 21.105469 2.734375 Z M 21.105469 2.734375 " fill-opacity="1" fill-rule="nonzero"/><path fill="#eb6753" d="M 24.953125 4.769531 L 20.152344 13.125 C 20.453125 13.3125 20.75 13.558594 21.011719 13.808594 L 27.601562 7.246094 C 27.296875 6.890625 27.003906 6.5625 26.679688 6.246094 C 26.140625 5.695312 25.578125 5.210938 24.953125 4.769531 Z M 24.953125 4.769531 " fill-opacity="1" fill-rule="nonzero"/><path fill="#eb6753" d="M 28.011719 7.75 L 21.503906 14.261719 C 21.746094 14.5625 21.996094 14.859375 22.1875 15.152344 L 29.78125 10.785156 C 29.320312 9.707031 28.722656 8.703125 28.011719 7.75 Z M 28.011719 7.75 " fill-opacity="1" fill-rule="nonzero"/><path fill="#eb6753" d="M 30.023438 11.417969 L 22.542969 15.75 C 22.707031 16.078125 22.84375 16.433594 22.976562 16.777344 L 30.8125 14.660156 C 30.679688 13.558594 30.40625 12.441406 30.023438 11.417969 Z M 30.023438 11.417969 " fill-opacity="1" fill-rule="nonzero"/><path fill="#eb6753" d="M 30.898438 15.351562 L 23.148438 17.4375 C 23.257812 17.90625 23.3125 18.386719 23.3125 18.902344 C 23.3125 19.449219 23.230469 20.015625 23.09375 20.53125 C 23.75 20.289062 24.367188 20.039062 24.992188 19.824219 C 26.292969 19.332031 27.644531 18.851562 28.984375 18.410156 L 29.644531 18.195312 L 30.890625 17.761719 C 30.941406 17.355469 30.96875 16.925781 30.96875 16.488281 C 30.949219 16.105469 30.921875 15.726562 30.898438 15.351562 Z M 30.898438 15.351562 " fill-opacity="1" fill-rule="nonzero"/></svg>