<svg xmlns="http://www.w3.org/2000/svg" xmlns:xlink="http://www.w3.org/1999/xlink" width="138" zoomAndPan="magnify" viewBox="0 0 103.5 32.999998" height="44" preserveAspectRatio="xMidYMid meet" version="1.0"><defs><g/><clipPath id="86f37d692a"><path d="M 0 0.078125 L 32.839844 0.078125 L 32.839844 32.917969 L 0 32.917969 Z M 0 0.078125 " clip-rule="nonzero"/></clipPath></defs><g fill="#ffffff" fill-opacity="1"><g transform="translate(37.249666, 19.858771)"><g><path d="M 4.546875 -7.28125 C 3.679688 -7.28125 3 -6.988281 2.5 -6.40625 C 2.007812 -5.832031 1.765625 -5.039062 1.765625 -4.03125 C 1.765625 -3.03125 1.992188 -2.238281 2.453125 -1.65625 C 2.921875 -1.070312 3.617188 -0.78125 4.546875 -0.78125 C 4.890625 -0.78125 5.21875 -0.804688 5.53125 -0.859375 C 5.851562 -0.921875 6.164062 -1 6.46875 -1.09375 L 6.46875 -0.21875 C 6.164062 -0.101562 5.851562 -0.0195312 5.53125 0.03125 C 5.21875 0.0820312 4.835938 0.109375 4.390625 0.109375 C 3.566406 0.109375 2.878906 -0.0546875 2.328125 -0.390625 C 1.785156 -0.734375 1.375 -1.21875 1.09375 -1.84375 C 0.820312 -2.46875 0.6875 -3.203125 0.6875 -4.046875 C 0.6875 -4.859375 0.832031 -5.570312 1.125 -6.1875 C 1.425781 -6.8125 1.867188 -7.296875 2.453125 -7.640625 C 3.035156 -7.992188 3.738281 -8.171875 4.5625 -8.171875 C 5.414062 -8.171875 6.160156 -8.015625 6.796875 -7.703125 L 6.375 -6.84375 C 6.132812 -6.957031 5.859375 -7.054688 5.546875 -7.140625 C 5.242188 -7.234375 4.910156 -7.28125 4.546875 -7.28125 Z M 4.546875 -7.28125 "/></g></g></g><g fill="#ffffff" fill-opacity="1"><g transform="translate(44.384464, 19.858771)"><g><path d="M 6.15625 0 L 5.1875 -2.5 L 1.984375 -2.5 L 1.03125 0 L 0 0 L 3.15625 -8.09375 L 4.0625 -8.09375 L 7.203125 0 Z M 4.875 -3.40625 L 3.96875 -5.84375 C 3.945312 -5.90625 3.910156 -6.015625 3.859375 -6.171875 C 3.804688 -6.328125 3.753906 -6.488281 3.703125 -6.65625 C 3.660156 -6.820312 3.625 -6.953125 3.59375 -7.046875 C 3.53125 -6.816406 3.46875 -6.585938 3.40625 -6.359375 C 3.34375 -6.140625 3.289062 -5.96875 3.25 -5.84375 L 2.328125 -3.40625 Z M 4.875 -3.40625 "/></g></g></g><g fill="#ffffff" fill-opacity="1"><g transform="translate(51.598291, 19.858771)"><g><path d="M 6.78125 -8.0625 L 3.890625 0 L 2.875 0 L 0 -8.0625 L 1.0625 -8.0625 L 2.875 -2.890625 C 3 -2.554688 3.097656 -2.242188 3.171875 -1.953125 C 3.253906 -1.671875 3.328125 -1.394531 3.390625 -1.125 C 3.441406 -1.394531 3.507812 -1.675781 3.59375 -1.96875 C 3.675781 -2.257812 3.773438 -2.578125 3.890625 -2.921875 L 5.703125 -8.0625 Z M 6.78125 -8.0625 "/></g></g></g><g fill="#ffffff" fill-opacity="1"><g transform="translate(58.371838, 19.858771)"><g><path d="M 5.609375 0 L 1.09375 0 L 1.09375 -8.0625 L 5.609375 -8.0625 L 5.609375 -7.171875 L 2.109375 -7.171875 L 2.109375 -4.65625 L 5.40625 -4.65625 L 5.40625 -3.765625 L 2.109375 -3.765625 L 2.109375 -0.890625 L 5.609375 -0.890625 Z M 5.609375 0 "/></g></g></g><g fill="#ffffff" fill-opacity="1"><g transform="translate(64.648652, 19.858771)"><g><path d="M 5.671875 -2.15625 C 5.671875 -1.4375 5.410156 -0.878906 4.890625 -0.484375 C 4.367188 -0.0859375 3.671875 0.109375 2.796875 0.109375 C 2.335938 0.109375 1.914062 0.0703125 1.53125 0 C 1.144531 -0.0625 0.828125 -0.148438 0.578125 -0.265625 L 0.578125 -1.25 C 0.847656 -1.125 1.179688 -1.007812 1.578125 -0.90625 C 1.984375 -0.8125 2.398438 -0.765625 2.828125 -0.765625 C 3.429688 -0.765625 3.882812 -0.878906 4.1875 -1.109375 C 4.5 -1.347656 4.65625 -1.664062 4.65625 -2.0625 C 4.65625 -2.332031 4.597656 -2.554688 4.484375 -2.734375 C 4.367188 -2.910156 4.171875 -3.070312 3.890625 -3.21875 C 3.617188 -3.375 3.238281 -3.546875 2.75 -3.734375 C 2.0625 -3.972656 1.539062 -4.273438 1.1875 -4.640625 C 0.84375 -5.003906 0.671875 -5.5 0.671875 -6.125 C 0.671875 -6.539062 0.78125 -6.90625 1 -7.21875 C 1.21875 -7.53125 1.519531 -7.765625 1.90625 -7.921875 C 2.289062 -8.085938 2.738281 -8.171875 3.25 -8.171875 C 3.6875 -8.171875 4.085938 -8.128906 4.453125 -8.046875 C 4.828125 -7.972656 5.171875 -7.867188 5.484375 -7.734375 L 5.15625 -6.859375 C 4.882812 -6.972656 4.582031 -7.070312 4.25 -7.15625 C 3.914062 -7.238281 3.578125 -7.28125 3.234375 -7.28125 C 2.722656 -7.28125 2.335938 -7.171875 2.078125 -6.953125 C 1.828125 -6.742188 1.703125 -6.460938 1.703125 -6.109375 C 1.703125 -5.835938 1.757812 -5.609375 1.875 -5.421875 C 1.988281 -5.242188 2.171875 -5.082031 2.421875 -4.9375 C 2.679688 -4.789062 3.03125 -4.640625 3.46875 -4.484375 C 3.945312 -4.304688 4.347656 -4.117188 4.671875 -3.921875 C 4.992188 -3.722656 5.238281 -3.484375 5.40625 -3.203125 C 5.582031 -2.929688 5.671875 -2.582031 5.671875 -2.15625 Z M 5.671875 -2.15625 "/></g></g></g><g fill="#ffffff" fill-opacity="1"><g transform="translate(70.846448, 19.858771)"><g/></g></g><g fill="#ffffff" fill-opacity="1"><g transform="translate(72.878509, 19.858771)"><g><path d="M 1.09375 0 L 1.09375 -8.0625 L 2.109375 -8.0625 L 2.109375 -0.90625 L 5.640625 -0.90625 L 5.640625 0 Z M 1.09375 0 "/></g></g></g><g fill="#ffffff" fill-opacity="1"><g transform="translate(78.794073, 19.858771)"><g><path d="M 6.15625 0 L 5.1875 -2.5 L 1.984375 -2.5 L 1.03125 0 L 0 0 L 3.15625 -8.09375 L 4.0625 -8.09375 L 7.203125 0 Z M 4.875 -3.40625 L 3.96875 -5.84375 C 3.945312 -5.90625 3.910156 -6.015625 3.859375 -6.171875 C 3.804688 -6.328125 3.753906 -6.488281 3.703125 -6.65625 C 3.660156 -6.820312 3.625 -6.953125 3.59375 -7.046875 C 3.53125 -6.816406 3.46875 -6.585938 3.40625 -6.359375 C 3.34375 -6.140625 3.289062 -5.96875 3.25 -5.84375 L 2.328125 -3.40625 Z M 4.875 -3.40625 "/></g></g></g><g fill="#ffffff" fill-opacity="1"><g transform="translate(86.007899, 19.858771)"><g><path d="M 7.484375 0 L 6.296875 0 L 1.984375 -6.703125 L 1.9375 -6.703125 C 1.957031 -6.429688 1.976562 -6.097656 2 -5.703125 C 2.019531 -5.316406 2.03125 -4.914062 2.03125 -4.5 L 2.03125 0 L 1.09375 0 L 1.09375 -8.0625 L 2.265625 -8.0625 L 6.578125 -1.390625 L 6.625 -1.390625 C 6.613281 -1.503906 6.601562 -1.679688 6.59375 -1.921875 C 6.582031 -2.171875 6.570312 -2.4375 6.5625 -2.71875 C 6.550781 -3 6.546875 -3.265625 6.546875 -3.515625 L 6.546875 -8.0625 L 7.484375 -8.0625 Z M 7.484375 0 "/></g></g></g><g fill="#ffffff" fill-opacity="1"><g transform="translate(94.58772, 19.858771)"><g><path d="M 7.5625 -4.109375 C 7.5625 -2.742188 7.1875 -1.71875 6.4375 -1.03125 C 5.695312 -0.34375 4.664062 0 3.34375 0 L 1.09375 0 L 1.09375 -8.0625 L 3.578125 -8.0625 C 4.390625 -8.0625 5.09375 -7.910156 5.6875 -7.609375 C 6.289062 -7.304688 6.753906 -6.863281 7.078125 -6.28125 C 7.398438 -5.695312 7.5625 -4.972656 7.5625 -4.109375 Z M 6.484375 -4.078125 C 6.484375 -5.148438 6.21875 -5.9375 5.6875 -6.4375 C 5.15625 -6.945312 4.40625 -7.203125 3.4375 -7.203125 L 2.109375 -7.203125 L 2.109375 -0.875 L 3.203125 -0.875 C 5.390625 -0.875 6.484375 -1.941406 6.484375 -4.078125 Z M 6.484375 -4.078125 "/></g></g></g><g clip-path="url(#86f37d692a)"><path fill="#eb6753" d="M 16.40625 0.078125 C 20.960938 0.078125 25.058594 1.898438 28.039062 4.878906 C 30.996094 7.863281 32.839844 11.960938 32.839844 16.488281 C 32.839844 21.011719 30.996094 25.136719 28.039062 28.09375 C 25.058594 31.074219 20.960938 32.921875 16.40625 32.921875 C 11.882812 32.921875 7.785156 31.074219 4.800781 28.09375 C 1.84375 25.136719 0 21.011719 0 16.488281 C 0 11.960938 1.84375 7.863281 4.808594 4.878906 C 7.789062 1.898438 11.882812 0.078125 16.40625 0.078125 Z M 27.480469 5.453125 C 24.625 2.621094 20.722656 0.867188 16.40625 0.867188 C 12.09375 0.867188 8.195312 2.621094 5.371094 5.445312 C 2.546875 8.269531 0.820312 12.171875 0.820312 16.480469 C 0.820312 20.789062 2.554688 24.695312 5.371094 27.515625 C 8.191406 30.359375 12.097656 32.09375 16.40625 32.09375 C 20.714844 32.09375 24.625 30.359375 27.46875 27.515625 C 30.285156 24.695312 32.019531 20.789062 32.019531 16.480469 C 32.019531 12.171875 30.300781 8.269531 27.480469 5.453125 Z M 27.480469 5.453125 " fill-opacity="1" fill-rule="nonzero"/></g><path fill="#eb6753" d="M 13.996094 30.804688 C 18.417969 25.519531 29.910156 19.554688 29.910156 19.554688 C 25.167969 22.917969 20.34375 28.238281 18.003906 30.917969 C 17.484375 30.96875 16.945312 30.996094 16.402344 30.996094 C 15.601562 30.996094 14.777344 30.9375 13.996094 30.804688 Z M 13.996094 30.804688 " fill-opacity="1" fill-rule="nonzero"/><path fill="#eb6753" d="M 9.039062 28.984375 C 14.753906 23.96875 29.242188 19.304688 29.242188 19.304688 C 21.761719 22.554688 14.707031 28.355469 12.316406 30.417969 C 11.152344 30.078125 10.0625 29.585938 9.039062 28.984375 Z M 9.039062 28.984375 " fill-opacity="1" fill-rule="nonzero"/><path fill="#eb6753" d="M 20.097656 30.53125 C 24.328125 24.460938 28.75 21.203125 30.488281 20.085938 C 29.832031 22.660156 28.507812 24.941406 26.695312 26.757812 C 24.894531 28.546875 22.628906 29.886719 20.097656 30.53125 Z M 20.097656 30.53125 " fill-opacity="1" fill-rule="nonzero"/><path fill="#eb6753" d="M 2.363281 20.09375 C 3.71875 20.984375 6.726562 23.128906 9.984375 26.957031 C 9.273438 27.421875 8.65625 27.902344 8.085938 28.367188 C 7.375 27.875 6.757812 27.34375 6.160156 26.765625 C 4.347656 24.945312 3.015625 22.667969 2.363281 20.09375 Z M 2.363281 20.09375 " fill-opacity="1" fill-rule="nonzero"/><path fill="#eb6753" d="M 2.9375 19.546875 C 2.9375 19.546875 7.902344 22.121094 12.566406 25.398438 C 11.941406 25.753906 11.351562 26.109375 10.746094 26.457031 C 8.433594 24.105469 5.675781 21.503906 2.9375 19.546875 Z M 2.9375 19.546875 " fill-opacity="1" fill-rule="nonzero"/><path fill="#eb6753" d="M 3.578125 19.304688 C 3.578125 19.304688 9.597656 21.230469 15.402344 23.941406 C 14.71875 24.269531 14.074219 24.597656 13.445312 24.941406 C 10.554688 22.9375 7.105469 20.847656 3.578125 19.304688 Z M 3.578125 19.304688 " fill-opacity="1" fill-rule="nonzero"/><path fill="#eb6753" d="M 9.550781 18.898438 C 9.550781 18.378906 9.601562 17.898438 9.714844 17.433594 L 1.964844 15.34375 C 1.9375 15.726562 1.910156 16.105469 1.910156 16.480469 C 1.910156 16.914062 1.9375 17.339844 1.964844 17.78125 L 3.019531 18.136719 L 3.882812 18.410156 C 4.855469 18.738281 5.839844 19.09375 6.8125 19.4375 C 7.113281 19.515625 7.382812 19.625 7.671875 19.738281 C 8.355469 19.980469 9.050781 20.257812 9.734375 20.527344 C 9.636719 20.015625 9.550781 19.441406 9.550781 18.898438 Z M 9.550781 18.898438 " fill-opacity="1" fill-rule="nonzero"/><path fill="#eb6753" d="M 2.011719 14.667969 L 9.871094 16.78125 C 9.984375 16.429688 10.148438 16.074219 10.304688 15.757812 L 2.824219 11.421875 C 2.417969 12.441406 2.148438 13.558594 2.011719 14.667969 Z M 2.011719 14.667969 " fill-opacity="1" fill-rule="nonzero"/><path fill="#eb6753" d="M 3.074219 10.785156 L 10.632812 15.148438 C 10.851562 14.84375 11.066406 14.550781 11.34375 14.253906 L 4.835938 7.746094 C 4.125 8.703125 3.527344 9.707031 3.074219 10.785156 Z M 3.074219 10.785156 " fill-opacity="1" fill-rule="nonzero"/><path fill="#eb6753" d="M 5.234375 7.246094 L 11.796875 13.808594 C 12.097656 13.5625 12.394531 13.3125 12.691406 13.125 L 7.863281 4.769531 C 7.265625 5.203125 6.699219 5.6875 6.15625 6.234375 C 5.832031 6.5625 5.535156 6.890625 5.234375 7.246094 Z M 5.234375 7.246094 " fill-opacity="1" fill-rule="nonzero"/><path fill="#eb6753" d="M 8.433594 4.363281 L 13.289062 12.769531 C 13.617188 12.605469 13.972656 12.46875 14.3125 12.335938 L 11.742188 2.734375 C 10.554688 3.140625 9.445312 3.683594 8.433594 4.363281 Z M 8.433594 4.363281 " fill-opacity="1" fill-rule="nonzero"/><path fill="#eb6753" d="M 12.402344 2.542969 L 14.976562 12.179688 C 15.332031 12.097656 15.710938 12.039062 16.085938 12.039062 L 16.085938 1.976562 C 14.804688 2.003906 13.5625 2.195312 12.402344 2.542969 Z M 12.402344 2.542969 " fill-opacity="1" fill-rule="nonzero"/><path fill="#eb6753" d="M 16.761719 1.976562 L 16.761719 12.039062 C 17.144531 12.039062 17.523438 12.09375 17.871094 12.179688 L 20.445312 2.550781 C 19.289062 2.195312 18.035156 2.003906 16.761719 1.976562 Z M 16.761719 1.976562 " fill-opacity="1" fill-rule="nonzero"/><path fill="#eb6753" d="M 21.105469 2.734375 L 18.527344 12.328125 C 18.882812 12.46875 19.238281 12.605469 19.554688 12.761719 L 24.40625 4.355469 C 23.375 3.683594 22.273438 3.140625 21.105469 2.734375 Z M 21.105469 2.734375 " fill-opacity="1" fill-rule="nonzero"/><path fill="#eb6753" d="M 24.953125 4.769531 L 20.152344 13.125 C 20.453125 13.3125 20.75 13.558594 21.011719 13.808594 L 27.601562 7.246094 C 27.296875 6.890625 27.003906 6.5625 26.679688 6.246094 C 26.140625 5.695312 25.578125 5.210938 24.953125 4.769531 Z M 24.953125 4.769531 " fill-opacity="1" fill-rule="nonzero"/><path fill="#eb6753" d="M 28.011719 7.75 L 21.503906 14.261719 C 21.746094 14.5625 21.996094 14.859375 22.1875 15.152344 L 29.78125 10.785156 C 29.320312 9.707031 28.722656 8.703125 28.011719 7.75 Z M 28.011719 7.75 " fill-opacity="1" fill-rule="nonzero"/><path fill="#eb6753" d="M 30.023438 11.417969 L 22.542969 15.75 C 22.707031 16.078125 22.84375 16.433594 22.976562 16.777344 L 30.8125 14.660156 C 30.679688 13.558594 30.40625 12.441406 30.023438 11.417969 Z M 30.023438 11.417969 " fill-opacity="1" fill-rule="nonzero"/><path fill="#eb6753" d="M 30.898438 15.351562 L 23.148438 17.4375 C 23.257812 17.90625 23.3125 18.386719 23.3125 18.902344 C 23.3125 19.449219 23.230469 20.015625 23.09375 20.53125 C 23.75 20.289062 24.367188 20.039062 24.992188 19.824219 C 26.292969 19.332031 27.644531 18.851562 28.984375 18.410156 L 29.644531 18.195312 L 30.890625 17.761719 C 30.941406 17.355469 30.96875 16.925781 30.96875 16.488281 C 30.949219 16.105469 30.921875 15.726562 30.898438 15.351562 Z M 30.898438 15.351562 " fill-opacity="1" fill-rule="nonzero"/></svg>