<svg xmlns="http://www.w3.org/2000/svg" xmlns:xlink="http://www.w3.org/1999/xlink" width="138" zoomAndPan="magnify" viewBox="0 0 103.5 32.999998" height="44" preserveAspectRatio="xMidYMid meet" version="1.0"><defs><g/><clipPath id="4bc6bcc2d8"><path d="M 0 0.078125 L 32.839844 0.078125 L 32.839844 32.917969 L 0 32.917969 Z M 0 0.078125 " clip-rule="nonzero"/></clipPath></defs><g fill="#ffffff" fill-opacity="1"><g transform="translate(37.60818, 22.472911)"><g><path d="M 3.796875 0.125 C 2.648438 0.125 1.84375 -0.210938 1.375 -0.890625 C 0.914062 -1.566406 0.6875 -2.507812 0.6875 -3.71875 L 0.6875 -7.796875 C 0.6875 -9.066406 0.914062 -10.03125 1.375 -10.6875 C 1.832031 -11.34375 2.640625 -11.671875 3.796875 -11.671875 C 4.835938 -11.671875 5.582031 -11.390625 6.03125 -10.828125 C 6.488281 -10.265625 6.71875 -9.4375 6.71875 -8.34375 L 6.71875 -7.421875 L 5.1875 -7.421875 L 5.1875 -8.234375 C 5.1875 -8.773438 5.160156 -9.1875 5.109375 -9.46875 C 5.066406 -9.75 4.945312 -9.972656 4.75 -10.140625 C 4.550781 -10.316406 4.238281 -10.40625 3.8125 -10.40625 C 3.375 -10.40625 3.046875 -10.3125 2.828125 -10.125 C 2.617188 -9.945312 2.476562 -9.691406 2.40625 -9.359375 C 2.34375 -9.035156 2.3125 -8.597656 2.3125 -8.046875 L 2.3125 -3.453125 C 2.3125 -2.867188 2.359375 -2.410156 2.453125 -2.078125 C 2.546875 -1.742188 2.695312 -1.503906 2.90625 -1.359375 C 3.125 -1.210938 3.425781 -1.140625 3.8125 -1.140625 C 4.21875 -1.140625 4.519531 -1.226562 4.71875 -1.40625 C 4.925781 -1.59375 5.054688 -1.84375 5.109375 -2.15625 C 5.160156 -2.46875 5.1875 -2.894531 5.1875 -3.4375 L 5.1875 -4.296875 L 6.71875 -4.296875 L 6.71875 -3.4375 C 6.71875 -2.289062 6.5 -1.410156 6.0625 -0.796875 C 5.625 -0.179688 4.867188 0.125 3.796875 0.125 Z M 3.796875 0.125 "/></g></g></g><g fill="#ffffff" fill-opacity="1"><g transform="translate(44.959689, 22.472911)"><g><path d="M 2.734375 -11.5625 L 4.28125 -11.5625 L 6.75 0 L 5.234375 0 L 4.703125 -2.90625 L 2.34375 -2.90625 L 1.78125 0 L 0.265625 0 Z M 4.484375 -4.0625 L 3.515625 -9.28125 L 2.5625 -4.0625 Z M 4.484375 -4.0625 "/></g></g></g><g fill="#ffffff" fill-opacity="1"><g transform="translate(51.982885, 22.472911)"><g><path d="M 0.328125 -11.5625 L 1.84375 -11.5625 L 3.671875 -3.046875 L 5.40625 -11.5625 L 6.890625 -11.5625 L 4.328125 0 L 2.90625 0 Z M 0.328125 -11.5625 "/></g></g></g><g fill="#ffffff" fill-opacity="1"><g transform="translate(59.191643, 22.472911)"><g><path d="M 0.90625 -11.5625 L 5.390625 -11.5625 L 5.390625 -10.375 L 2.515625 -10.375 L 2.515625 -6.546875 L 4.84375 -6.546875 L 4.84375 -5.390625 L 2.515625 -5.390625 L 2.515625 -1.15625 L 5.40625 -1.15625 L 5.40625 0 L 0.90625 0 Z M 0.90625 -11.5625 "/></g></g></g><g fill="#ffffff" fill-opacity="1"><g transform="translate(65.001482, 22.472911)"><g><path d="M 3.625 0.125 C 2.65625 0.125 1.914062 -0.171875 1.40625 -0.765625 C 0.894531 -1.367188 0.613281 -2.191406 0.5625 -3.234375 L 1.984375 -3.625 C 2.035156 -2.882812 2.179688 -2.285156 2.421875 -1.828125 C 2.660156 -1.367188 3.0625 -1.140625 3.625 -1.140625 C 4.039062 -1.140625 4.359375 -1.253906 4.578125 -1.484375 C 4.796875 -1.722656 4.90625 -2.0625 4.90625 -2.5 C 4.90625 -2.976562 4.800781 -3.375 4.59375 -3.6875 C 4.394531 -4 4.078125 -4.347656 3.640625 -4.734375 L 1.703125 -6.4375 C 1.304688 -6.78125 1.019531 -7.148438 0.84375 -7.546875 C 0.664062 -7.941406 0.578125 -8.425781 0.578125 -9 C 0.578125 -9.84375 0.820312 -10.5 1.3125 -10.96875 C 1.800781 -11.4375 2.460938 -11.671875 3.296875 -11.671875 C 4.210938 -11.671875 4.898438 -11.425781 5.359375 -10.9375 C 5.828125 -10.457031 6.113281 -9.707031 6.21875 -8.6875 L 4.84375 -8.3125 C 4.789062 -8.988281 4.65625 -9.507812 4.4375 -9.875 C 4.226562 -10.238281 3.847656 -10.421875 3.296875 -10.421875 C 2.890625 -10.421875 2.578125 -10.3125 2.359375 -10.09375 C 2.140625 -9.882812 2.03125 -9.570312 2.03125 -9.15625 C 2.03125 -8.8125 2.085938 -8.519531 2.203125 -8.28125 C 2.316406 -8.050781 2.507812 -7.816406 2.78125 -7.578125 L 4.734375 -5.875 C 5.242188 -5.425781 5.644531 -4.9375 5.9375 -4.40625 C 6.238281 -3.882812 6.390625 -3.289062 6.390625 -2.625 C 6.390625 -1.78125 6.132812 -1.109375 5.625 -0.609375 C 5.113281 -0.117188 4.445312 0.125 3.625 0.125 Z M 3.625 0.125 "/></g></g></g><g fill="#ffffff" fill-opacity="1"><g transform="translate(71.753448, 22.472911)"><g/></g></g><g fill="#ffffff" fill-opacity="1"><g transform="translate(75.022373, 22.472911)"><g><path d="M 0.90625 -11.5625 L 2.515625 -11.5625 L 2.515625 -1.15625 L 5.46875 -1.15625 L 5.46875 0 L 0.90625 0 Z M 0.90625 -11.5625 "/></g></g></g><g fill="#ffffff" fill-opacity="1"><g transform="translate(80.689461, 22.472911)"><g><path d="M 2.734375 -11.5625 L 4.28125 -11.5625 L 6.75 0 L 5.234375 0 L 4.703125 -2.90625 L 2.34375 -2.90625 L 1.78125 0 L 0.265625 0 Z M 4.484375 -4.0625 L 3.515625 -9.28125 L 2.5625 -4.0625 Z M 4.484375 -4.0625 "/></g></g></g><g fill="#ffffff" fill-opacity="1"><g transform="translate(87.712658, 22.472911)"><g><path d="M 0.90625 -11.5625 L 2 -11.5625 L 5.28125 -3.890625 L 5.28125 -11.5625 L 6.625 -11.5625 L 6.625 0 L 5.59375 0 L 2.265625 -7.890625 L 2.265625 0 L 0.90625 0 Z M 0.90625 -11.5625 "/></g></g></g><g fill="#ffffff" fill-opacity="1"><g transform="translate(95.24974, 22.472911)"><g><path d="M 0.90625 -11.5625 L 3.40625 -11.5625 C 4.65625 -11.5625 5.539062 -11.273438 6.0625 -10.703125 C 6.582031 -10.140625 6.84375 -9.253906 6.84375 -8.046875 L 6.84375 -3.78125 C 6.84375 -2.507812 6.585938 -1.5625 6.078125 -0.9375 C 5.566406 -0.3125 4.722656 0 3.546875 0 L 0.90625 0 Z M 3.421875 -1.15625 C 3.984375 -1.15625 4.390625 -1.265625 4.640625 -1.484375 C 4.898438 -1.703125 5.0625 -2 5.125 -2.375 C 5.1875 -2.75 5.21875 -3.316406 5.21875 -4.078125 L 5.21875 -7.84375 C 5.21875 -8.5 5.175781 -9 5.09375 -9.34375 C 5.007812 -9.695312 4.835938 -9.957031 4.578125 -10.125 C 4.328125 -10.289062 3.929688 -10.375 3.390625 -10.375 L 2.515625 -10.375 L 2.515625 -1.15625 Z M 3.421875 -1.15625 "/></g></g></g><g clip-path="url(#4bc6bcc2d8)"><path fill="#eb6753" d="M 16.40625 0.078125 C 20.960938 0.078125 25.058594 1.898438 28.039062 4.878906 C 30.996094 7.863281 32.839844 11.960938 32.839844 16.488281 C 32.839844 21.011719 30.996094 25.136719 28.039062 28.09375 C 25.058594 31.074219 20.960938 32.921875 16.40625 32.921875 C 11.882812 32.921875 7.785156 31.074219 4.800781 28.09375 C 1.84375 25.136719 0 21.011719 0 16.488281 C 0 11.960938 1.84375 7.863281 4.808594 4.878906 C 7.789062 1.898438 11.882812 0.078125 16.40625 0.078125 Z M 27.480469 5.453125 C 24.625 2.621094 20.722656 0.867188 16.40625 0.867188 C 12.09375 0.867188 8.195312 2.621094 5.371094 5.445312 C 2.546875 8.269531 0.820312 12.171875 0.820312 16.480469 C 0.820312 20.789062 2.554688 24.695312 5.371094 27.515625 C 8.191406 30.359375 12.097656 32.09375 16.40625 32.09375 C 20.714844 32.09375 24.625 30.359375 27.46875 27.515625 C 30.285156 24.695312 32.019531 20.789062 32.019531 16.480469 C 32.019531 12.171875 30.300781 8.269531 27.480469 5.453125 Z M 27.480469 5.453125 " fill-opacity="1" fill-rule="nonzero"/></g><path fill="#eb6753" d="M 13.996094 30.804688 C 18.417969 25.519531 29.910156 19.554688 29.910156 19.554688 C 25.167969 22.917969 20.34375 28.238281 18.003906 30.917969 C 17.484375 30.96875 16.945312 30.996094 16.402344 30.996094 C 15.601562 30.996094 14.777344 30.9375 13.996094 30.804688 Z M 13.996094 30.804688 " fill-opacity="1" fill-rule="nonzero"/><path fill="#eb6753" d="M 9.039062 28.984375 C 14.753906 23.96875 29.242188 19.304688 29.242188 19.304688 C 21.761719 22.554688 14.707031 28.355469 12.316406 30.417969 C 11.152344 30.078125 10.0625 29.585938 9.039062 28.984375 Z M 9.039062 28.984375 " fill-opacity="1" fill-rule="nonzero"/><path fill="#eb6753" d="M 20.097656 30.53125 C 24.328125 24.460938 28.75 21.203125 30.488281 20.085938 C 29.832031 22.660156 28.507812 24.941406 26.695312 26.757812 C 24.894531 28.546875 22.628906 29.886719 20.097656 30.53125 Z M 20.097656 30.53125 " fill-opacity="1" fill-rule="nonzero"/><path fill="#eb6753" d="M 2.363281 20.09375 C 3.71875 20.984375 6.726562 23.128906 9.984375 26.957031 C 9.273438 27.421875 8.65625 27.902344 8.085938 28.367188 C 7.375 27.875 6.757812 27.34375 6.160156 26.765625 C 4.347656 24.945312 3.015625 22.667969 2.363281 20.09375 Z M 2.363281 20.09375 " fill-opacity="1" fill-rule="nonzero"/><path fill="#eb6753" d="M 2.9375 19.546875 C 2.9375 19.546875 7.902344 22.121094 12.566406 25.398438 C 11.941406 25.753906 11.351562 26.109375 10.746094 26.457031 C 8.433594 24.105469 5.675781 21.503906 2.9375 19.546875 Z M 2.9375 19.546875 " fill-opacity="1" fill-rule="nonzero"/><path fill="#eb6753" d="M 3.578125 19.304688 C 3.578125 19.304688 9.597656 21.230469 15.402344 23.941406 C 14.71875 24.269531 14.074219 24.597656 13.445312 24.941406 C 10.554688 22.9375 7.105469 20.847656 3.578125 19.304688 Z M 3.578125 19.304688 " fill-opacity="1" fill-rule="nonzero"/><path fill="#eb6753" d="M 9.550781 18.898438 C 9.550781 18.378906 9.601562 17.898438 9.714844 17.433594 L 1.964844 15.34375 C 1.9375 15.726562 1.910156 16.105469 1.910156 16.480469 C 1.910156 16.914062 1.9375 17.339844 1.964844 17.78125 L 3.019531 18.136719 L 3.882812 18.410156 C 4.855469 18.738281 5.839844 19.09375 6.8125 19.4375 C 7.113281 19.515625 7.382812 19.625 7.671875 19.738281 C 8.355469 19.980469 9.050781 20.257812 9.734375 20.527344 C 9.636719 20.015625 9.550781 19.441406 9.550781 18.898438 Z M 9.550781 18.898438 " fill-opacity="1" fill-rule="nonzero"/><path fill="#eb6753" d="M 2.011719 14.667969 L 9.871094 16.78125 C 9.984375 16.429688 10.148438 16.074219 10.304688 15.757812 L 2.824219 11.421875 C 2.417969 12.441406 2.148438 13.558594 2.011719 14.667969 Z M 2.011719 14.667969 " fill-opacity="1" fill-rule="nonzero"/><path fill="#eb6753" d="M 3.074219 10.785156 L 10.632812 15.148438 C 10.851562 14.84375 11.066406 14.550781 11.34375 14.253906 L 4.835938 7.746094 C 4.125 8.703125 3.527344 9.707031 3.074219 10.785156 Z M 3.074219 10.785156 " fill-opacity="1" fill-rule="nonzero"/><path fill="#eb6753" d="M 5.234375 7.246094 L 11.796875 13.808594 C 12.097656 13.5625 12.394531 13.3125 12.691406 13.125 L 7.863281 4.769531 C 7.265625 5.203125 6.699219 5.6875 6.15625 6.234375 C 5.832031 6.5625 5.535156 6.890625 5.234375 7.246094 Z M 5.234375 7.246094 " fill-opacity="1" fill-rule="nonzero"/><path fill="#eb6753" d="M 8.433594 4.363281 L 13.289062 12.769531 C 13.617188 12.605469 13.972656 12.46875 14.3125 12.335938 L 11.742188 2.734375 C 10.554688 3.140625 9.445312 3.683594 8.433594 4.363281 Z M 8.433594 4.363281 " fill-opacity="1" fill-rule="nonzero"/><path fill="#eb6753" d="M 12.402344 2.542969 L 14.976562 12.179688 C 15.332031 12.097656 15.710938 12.039062 16.085938 12.039062 L 16.085938 1.976562 C 14.804688 2.003906 13.5625 2.195312 12.402344 2.542969 Z M 12.402344 2.542969 " fill-opacity="1" fill-rule="nonzero"/><path fill="#eb6753" d="M 16.761719 1.976562 L 16.761719 12.039062 C 17.144531 12.039062 17.523438 12.09375 17.871094 12.179688 L 20.445312 2.550781 C 19.289062 2.195312 18.035156 2.003906 16.761719 1.976562 Z M 16.761719 1.976562 " fill-opacity="1" fill-rule="nonzero"/><path fill="#eb6753" d="M 21.105469 2.734375 L 18.527344 12.328125 C 18.882812 12.46875 19.238281 12.605469 19.554688 12.761719 L 24.40625 4.355469 C 23.375 3.683594 22.273438 3.140625 21.105469 2.734375 Z M 21.105469 2.734375 " fill-opacity="1" fill-rule="nonzero"/><path fill="#eb6753" d="M 24.953125 4.769531 L 20.152344 13.125 C 20.453125 13.3125 20.75 13.558594 21.011719 13.808594 L 27.601562 7.246094 C 27.296875 6.890625 27.003906 6.5625 26.679688 6.246094 C 26.140625 5.695312 25.578125 5.210938 24.953125 4.769531 Z M 24.953125 4.769531 " fill-opacity="1" fill-rule="nonzero"/><path fill="#eb6753" d="M 28.011719 7.75 L 21.503906 14.261719 C 21.746094 14.5625 21.996094 14.859375 22.1875 15.152344 L 29.78125 10.785156 C 29.320312 9.707031 28.722656 8.703125 28.011719 7.75 Z M 28.011719 7.75 " fill-opacity="1" fill-rule="nonzero"/><path fill="#eb6753" d="M 30.023438 11.417969 L 22.542969 15.75 C 22.707031 16.078125 22.84375 16.433594 22.976562 16.777344 L 30.8125 14.660156 C 30.679688 13.558594 30.40625 12.441406 30.023438 11.417969 Z M 30.023438 11.417969 " fill-opacity="1" fill-rule="nonzero"/><path fill="#eb6753" d="M 30.898438 15.351562 L 23.148438 17.4375 C 23.257812 17.90625 23.3125 18.386719 23.3125 18.902344 C 23.3125 19.449219 23.230469 20.015625 23.09375 20.53125 C 23.75 20.289062 24.367188 20.039062 24.992188 19.824219 C 26.292969 19.332031 27.644531 18.851562 28.984375 18.410156 L 29.644531 18.195312 L 30.890625 17.761719 C 30.941406 17.355469 30.96875 16.925781 30.96875 16.488281 C 30.949219 16.105469 30.921875 15.726562 30.898438 15.351562 Z M 30.898438 15.351562 " fill-opacity="1" fill-rule="nonzero"/></svg>