<svg xmlns="http://www.w3.org/2000/svg" xmlns:xlink="http://www.w3.org/1999/xlink" width="138" zoomAndPan="magnify" viewBox="0 0 103.5 32.999998" height="44" preserveAspectRatio="xMidYMid meet" version="1.0"><defs><g/><clipPath id="b0257b12b4"><path d="M 0.820312 0.898438 L 32.167969 0.898438 L 32.167969 32.25 L 0.820312 32.25 Z M 0.820312 0.898438 " clip-rule="nonzero"/></clipPath><clipPath id="157213191f"><path d="M 8.011719 8 L 25.027344 8 L 25.027344 25 L 8.011719 25 Z M 8.011719 8 " clip-rule="nonzero"/></clipPath><clipPath id="988fe0c798"><path d="M 3.800781 4.75 L 29 4.75 L 29 27.886719 L 3.800781 27.886719 Z M 3.800781 4.75 " clip-rule="nonzero"/></clipPath></defs><g fill="#181a20" fill-opacity="1"><g transform="translate(34.439094, 19.85877)"><g><path d="M 0.375 -4.03125 C 0.375 -4.820312 0.546875 -5.523438 0.890625 -6.140625 C 1.234375 -6.765625 1.710938 -7.25 2.328125 -7.59375 C 2.941406 -7.945312 3.640625 -8.125 4.421875 -8.125 C 5.367188 -8.125 6.179688 -7.867188 6.859375 -7.359375 C 7.535156 -6.859375 7.988281 -6.175781 8.21875 -5.3125 L 6.078125 -5.3125 C 5.910156 -5.644531 5.679688 -5.898438 5.390625 -6.078125 C 5.097656 -6.253906 4.765625 -6.34375 4.390625 -6.34375 C 3.785156 -6.34375 3.296875 -6.128906 2.921875 -5.703125 C 2.554688 -5.285156 2.375 -4.726562 2.375 -4.03125 C 2.375 -3.320312 2.554688 -2.757812 2.921875 -2.34375 C 3.296875 -1.925781 3.785156 -1.71875 4.390625 -1.71875 C 4.765625 -1.71875 5.097656 -1.800781 5.390625 -1.96875 C 5.679688 -2.144531 5.910156 -2.40625 6.078125 -2.75 L 8.21875 -2.75 C 7.988281 -1.875 7.535156 -1.1875 6.859375 -0.6875 C 6.179688 -0.1875 5.367188 0.0625 4.421875 0.0625 C 3.640625 0.0625 2.941406 -0.109375 2.328125 -0.453125 C 1.710938 -0.804688 1.234375 -1.289062 0.890625 -1.90625 C 0.546875 -2.53125 0.375 -3.238281 0.375 -4.03125 Z M 0.375 -4.03125 "/></g></g></g><g fill="#181a20" fill-opacity="1"><g transform="translate(43.157027, 19.85877)"><g><path d="M 0.3125 -3.203125 C 0.3125 -3.859375 0.4375 -4.429688 0.6875 -4.921875 C 0.9375 -5.421875 1.273438 -5.800781 1.703125 -6.0625 C 2.128906 -6.332031 2.609375 -6.46875 3.140625 -6.46875 C 3.585938 -6.46875 3.976562 -6.375 4.3125 -6.1875 C 4.65625 -6.007812 4.914062 -5.773438 5.09375 -5.484375 L 5.09375 -6.375 L 7.0625 -6.375 L 7.0625 0 L 5.09375 0 L 5.09375 -0.90625 C 4.90625 -0.601562 4.640625 -0.359375 4.296875 -0.171875 C 3.960938 0.00390625 3.570312 0.09375 3.125 0.09375 C 2.601562 0.09375 2.128906 -0.0390625 1.703125 -0.3125 C 1.273438 -0.582031 0.9375 -0.96875 0.6875 -1.46875 C 0.4375 -1.96875 0.3125 -2.546875 0.3125 -3.203125 Z M 5.09375 -3.1875 C 5.09375 -3.675781 4.957031 -4.0625 4.6875 -4.34375 C 4.414062 -4.625 4.085938 -4.765625 3.703125 -4.765625 C 3.316406 -4.765625 2.988281 -4.625 2.71875 -4.34375 C 2.445312 -4.070312 2.3125 -3.691406 2.3125 -3.203125 C 2.3125 -2.710938 2.445312 -2.320312 2.71875 -2.03125 C 2.988281 -1.75 3.316406 -1.609375 3.703125 -1.609375 C 4.085938 -1.609375 4.414062 -1.75 4.6875 -2.03125 C 4.957031 -2.3125 5.09375 -2.695312 5.09375 -3.1875 Z M 5.09375 -3.1875 "/></g></g></g><g fill="#181a20" fill-opacity="1"><g transform="translate(50.925361, 19.85877)"><g><path d="M 3.578125 -1.828125 L 4.96875 -6.375 L 7.046875 -6.375 L 4.78125 0 L 2.375 0 L 0.109375 -6.375 L 2.203125 -6.375 Z M 3.578125 -1.828125 "/></g></g></g><g fill="#181a20" fill-opacity="1"><g transform="translate(58.087331, 19.85877)"><g><path d="M 6.71875 -3.296875 C 6.71875 -3.109375 6.707031 -2.914062 6.6875 -2.71875 L 2.265625 -2.71875 C 2.296875 -2.320312 2.421875 -2.019531 2.640625 -1.8125 C 2.867188 -1.601562 3.148438 -1.5 3.484375 -1.5 C 3.960938 -1.5 4.300781 -1.703125 4.5 -2.109375 L 6.578125 -2.109375 C 6.472656 -1.691406 6.28125 -1.316406 6 -0.984375 C 5.71875 -0.648438 5.367188 -0.382812 4.953125 -0.1875 C 4.535156 0 4.066406 0.09375 3.546875 0.09375 C 2.921875 0.09375 2.363281 -0.0351562 1.875 -0.296875 C 1.382812 -0.566406 1 -0.953125 0.71875 -1.453125 C 0.445312 -1.953125 0.3125 -2.53125 0.3125 -3.1875 C 0.3125 -3.851562 0.445312 -4.429688 0.71875 -4.921875 C 0.988281 -5.421875 1.367188 -5.800781 1.859375 -6.0625 C 2.347656 -6.332031 2.910156 -6.46875 3.546875 -6.46875 C 4.160156 -6.46875 4.707031 -6.335938 5.1875 -6.078125 C 5.664062 -5.828125 6.039062 -5.457031 6.3125 -4.96875 C 6.582031 -4.488281 6.71875 -3.929688 6.71875 -3.296875 Z M 4.71875 -3.8125 C 4.71875 -4.144531 4.601562 -4.410156 4.375 -4.609375 C 4.144531 -4.804688 3.859375 -4.90625 3.515625 -4.90625 C 3.191406 -4.90625 2.914062 -4.804688 2.6875 -4.609375 C 2.46875 -4.421875 2.332031 -4.15625 2.28125 -3.8125 Z M 4.71875 -3.8125 "/></g></g></g><g fill="#181a20" fill-opacity="1"><g transform="translate(65.134897, 19.85877)"><g><path d="M 3.3125 0.09375 C 2.75 0.09375 2.25 0 1.8125 -0.1875 C 1.382812 -0.382812 1.039062 -0.644531 0.78125 -0.96875 C 0.53125 -1.300781 0.390625 -1.675781 0.359375 -2.09375 L 2.296875 -2.09375 C 2.316406 -1.875 2.414062 -1.691406 2.59375 -1.546875 C 2.78125 -1.410156 3.007812 -1.34375 3.28125 -1.34375 C 3.53125 -1.34375 3.71875 -1.390625 3.84375 -1.484375 C 3.976562 -1.585938 4.046875 -1.710938 4.046875 -1.859375 C 4.046875 -2.046875 3.953125 -2.179688 3.765625 -2.265625 C 3.578125 -2.359375 3.269531 -2.457031 2.84375 -2.5625 C 2.382812 -2.664062 2 -2.773438 1.6875 -2.890625 C 1.382812 -3.015625 1.125 -3.203125 0.90625 -3.453125 C 0.6875 -3.710938 0.578125 -4.0625 0.578125 -4.5 C 0.578125 -4.863281 0.675781 -5.195312 0.875 -5.5 C 1.070312 -5.800781 1.367188 -6.035156 1.765625 -6.203125 C 2.160156 -6.378906 2.628906 -6.46875 3.171875 -6.46875 C 3.972656 -6.46875 4.601562 -6.269531 5.0625 -5.875 C 5.519531 -5.476562 5.785156 -4.953125 5.859375 -4.296875 L 4.046875 -4.296875 C 4.015625 -4.515625 3.914062 -4.6875 3.75 -4.8125 C 3.59375 -4.945312 3.378906 -5.015625 3.109375 -5.015625 C 2.878906 -5.015625 2.703125 -4.972656 2.578125 -4.890625 C 2.460938 -4.804688 2.40625 -4.6875 2.40625 -4.53125 C 2.40625 -4.34375 2.5 -4.203125 2.6875 -4.109375 C 2.882812 -4.023438 3.191406 -3.9375 3.609375 -3.84375 C 4.078125 -3.71875 4.457031 -3.597656 4.75 -3.484375 C 5.050781 -3.367188 5.3125 -3.175781 5.53125 -2.90625 C 5.757812 -2.644531 5.878906 -2.296875 5.890625 -1.859375 C 5.890625 -1.484375 5.785156 -1.144531 5.578125 -0.84375 C 5.367188 -0.550781 5.066406 -0.320312 4.671875 -0.15625 C 4.273438 0.0078125 3.820312 0.09375 3.3125 0.09375 Z M 3.3125 0.09375 "/></g></g></g><g fill="#181a20" fill-opacity="1"><g transform="translate(71.518891, 19.85877)"><g/></g></g><g fill="#181a20" fill-opacity="1"><g transform="translate(73.944352, 19.85877)"><g><path d="M 2.671875 -1.515625 L 5.234375 -1.515625 L 5.234375 0 L 0.703125 0 L 0.703125 -8.03125 L 2.671875 -8.03125 Z M 2.671875 -1.515625 "/></g></g></g><g fill="#181a20" fill-opacity="1"><g transform="translate(79.40164, 19.85877)"><g><path d="M 0.3125 -3.203125 C 0.3125 -3.859375 0.4375 -4.429688 0.6875 -4.921875 C 0.9375 -5.421875 1.273438 -5.800781 1.703125 -6.0625 C 2.128906 -6.332031 2.609375 -6.46875 3.140625 -6.46875 C 3.585938 -6.46875 3.976562 -6.375 4.3125 -6.1875 C 4.65625 -6.007812 4.914062 -5.773438 5.09375 -5.484375 L 5.09375 -6.375 L 7.0625 -6.375 L 7.0625 0 L 5.09375 0 L 5.09375 -0.90625 C 4.90625 -0.601562 4.640625 -0.359375 4.296875 -0.171875 C 3.960938 0.00390625 3.570312 0.09375 3.125 0.09375 C 2.601562 0.09375 2.128906 -0.0390625 1.703125 -0.3125 C 1.273438 -0.582031 0.9375 -0.96875 0.6875 -1.46875 C 0.4375 -1.96875 0.3125 -2.546875 0.3125 -3.203125 Z M 5.09375 -3.1875 C 5.09375 -3.675781 4.957031 -4.0625 4.6875 -4.34375 C 4.414062 -4.625 4.085938 -4.765625 3.703125 -4.765625 C 3.316406 -4.765625 2.988281 -4.625 2.71875 -4.34375 C 2.445312 -4.070312 2.3125 -3.691406 2.3125 -3.203125 C 2.3125 -2.710938 2.445312 -2.320312 2.71875 -2.03125 C 2.988281 -1.75 3.316406 -1.609375 3.703125 -1.609375 C 4.085938 -1.609375 4.414062 -1.75 4.6875 -2.03125 C 4.957031 -2.3125 5.09375 -2.695312 5.09375 -3.1875 Z M 5.09375 -3.1875 "/></g></g></g><g fill="#181a20" fill-opacity="1"><g transform="translate(87.169975, 19.85877)"><g><path d="M 4.59375 -6.453125 C 5.34375 -6.453125 5.941406 -6.207031 6.390625 -5.71875 C 6.835938 -5.238281 7.0625 -4.578125 7.0625 -3.734375 L 7.0625 0 L 5.109375 0 L 5.109375 -3.46875 C 5.109375 -3.894531 5 -4.222656 4.78125 -4.453125 C 4.5625 -4.691406 4.265625 -4.8125 3.890625 -4.8125 C 3.515625 -4.8125 3.21875 -4.691406 3 -4.453125 C 2.78125 -4.222656 2.671875 -3.894531 2.671875 -3.46875 L 2.671875 0 L 0.703125 0 L 0.703125 -6.375 L 2.671875 -6.375 L 2.671875 -5.53125 C 2.867188 -5.8125 3.132812 -6.035156 3.46875 -6.203125 C 3.800781 -6.367188 4.175781 -6.453125 4.59375 -6.453125 Z M 4.59375 -6.453125 "/></g></g></g><g fill="#181a20" fill-opacity="1"><g transform="translate(94.881114, 19.85877)"><g><path d="M 0.3125 -3.203125 C 0.3125 -3.859375 0.4375 -4.429688 0.6875 -4.921875 C 0.9375 -5.421875 1.273438 -5.800781 1.703125 -6.0625 C 2.128906 -6.332031 2.609375 -6.46875 3.140625 -6.46875 C 3.554688 -6.46875 3.9375 -6.378906 4.28125 -6.203125 C 4.625 -6.035156 4.894531 -5.800781 5.09375 -5.5 L 5.09375 -8.46875 L 7.0625 -8.46875 L 7.0625 0 L 5.09375 0 L 5.09375 -0.921875 C 4.914062 -0.609375 4.65625 -0.359375 4.3125 -0.171875 C 3.976562 0.00390625 3.585938 0.09375 3.140625 0.09375 C 2.609375 0.09375 2.128906 -0.0390625 1.703125 -0.3125 C 1.273438 -0.582031 0.9375 -0.96875 0.6875 -1.46875 C 0.4375 -1.96875 0.3125 -2.546875 0.3125 -3.203125 Z M 5.09375 -3.1875 C 5.09375 -3.675781 4.957031 -4.0625 4.6875 -4.34375 C 4.414062 -4.625 4.085938 -4.765625 3.703125 -4.765625 C 3.316406 -4.765625 2.988281 -4.625 2.71875 -4.34375 C 2.445312 -4.070312 2.3125 -3.691406 2.3125 -3.203125 C 2.3125 -2.710938 2.445312 -2.320312 2.71875 -2.03125 C 2.988281 -1.75 3.316406 -1.609375 3.703125 -1.609375 C 4.085938 -1.609375 4.414062 -1.75 4.6875 -2.03125 C 4.957031 -2.3125 5.09375 -2.695312 5.09375 -3.1875 Z M 5.09375 -3.1875 "/></g></g></g><g clip-path="url(#b0257b12b4)"><path fill="#eb6753" d="M 15.101562 0.898438 L 17.9375 0.898438 C 18.867188 0.898438 19.792969 0.992188 20.703125 1.171875 C 21.617188 1.355469 22.503906 1.625 23.363281 1.980469 C 24.226562 2.335938 25.042969 2.773438 25.816406 3.289062 C 26.589844 3.808594 27.308594 4.394531 27.964844 5.054688 C 28.625 5.710938 29.210938 6.429688 29.730469 7.203125 C 30.246094 7.976562 30.683594 8.792969 31.039062 9.652344 C 31.394531 10.515625 31.664062 11.402344 31.847656 12.3125 C 32.027344 13.226562 32.117188 14.148438 32.117188 15.082031 L 32.117188 17.917969 C 32.117188 18.847656 32.027344 19.769531 31.847656 20.683594 C 31.664062 21.597656 31.394531 22.484375 31.039062 23.34375 C 30.683594 24.203125 30.246094 25.019531 29.730469 25.796875 C 29.210938 26.570312 28.625 27.285156 27.964844 27.945312 C 27.308594 28.601562 26.589844 29.191406 25.816406 29.707031 C 25.042969 30.226562 24.226562 30.660156 23.363281 31.019531 C 22.503906 31.375 21.617188 31.644531 20.703125 31.824219 C 19.792969 32.007812 18.867188 32.097656 17.9375 32.097656 L 15.101562 32.097656 C 14.171875 32.097656 13.25 32.007812 12.335938 31.824219 C 11.421875 31.644531 10.535156 31.375 9.675781 31.019531 C 8.816406 30.660156 7.996094 30.226562 7.222656 29.707031 C 6.449219 29.191406 5.734375 28.601562 5.074219 27.945312 C 4.417969 27.285156 3.828125 26.570312 3.3125 25.796875 C 2.792969 25.019531 2.355469 24.203125 2 23.34375 C 1.644531 22.484375 1.375 21.597656 1.195312 20.683594 C 1.011719 19.769531 0.921875 18.847656 0.921875 17.917969 L 0.921875 15.082031 C 0.921875 14.148438 1.011719 13.226562 1.195312 12.3125 C 1.375 11.402344 1.644531 10.515625 2 9.652344 C 2.355469 8.792969 2.792969 7.976562 3.3125 7.203125 C 3.828125 6.429688 4.417969 5.710938 5.074219 5.054688 C 5.734375 4.394531 6.449219 3.808594 7.222656 3.289062 C 7.996094 2.773438 8.816406 2.335938 9.675781 1.980469 C 10.535156 1.625 11.421875 1.355469 12.335938 1.171875 C 13.25 0.992188 14.171875 0.898438 15.101562 0.898438 Z M 15.101562 0.898438 " fill-opacity="1" fill-rule="nonzero"/></g><g clip-path="url(#157213191f)"><path fill="#eb6753" d="M 24.15625 16.582031 L 23.359375 15.890625 L 23.359375 22.417969 C 23.359375 23.519531 22.46875 24.410156 21.367188 24.410156 L 18.976562 24.410156 C 19.175781 24.207031 19.386719 23.976562 19.601562 23.730469 C 19.789062 23.511719 19.964844 23.296875 20.128906 23.082031 L 21.367188 23.082031 C 21.734375 23.082031 22.03125 22.785156 22.03125 22.417969 L 22.03125 14.738281 L 16.519531 9.949219 L 11.007812 14.738281 L 11.007812 22.417969 C 11.007812 22.785156 11.304688 23.082031 11.671875 23.082031 L 12.910156 23.082031 C 13.074219 23.296875 13.25 23.511719 13.4375 23.730469 C 13.652344 23.976562 13.863281 24.207031 14.066406 24.410156 L 11.671875 24.410156 C 10.574219 24.410156 9.679688 23.519531 9.679688 22.417969 L 9.679688 15.890625 L 8.882812 16.582031 L 8.011719 15.578125 L 16.519531 8.191406 L 25.027344 15.578125 Z M 16.519531 18.066406 C 15.96875 18.066406 15.523438 18.511719 15.523438 19.0625 C 15.523438 19.613281 15.96875 20.058594 16.519531 20.058594 C 17.070312 20.058594 17.515625 19.613281 17.515625 19.0625 C 17.515625 18.511719 17.070312 18.066406 16.519531 18.066406 Z M 20.339844 19.261719 C 20.339844 20.316406 19.753906 21.527344 18.597656 22.859375 C 17.78125 23.800781 16.972656 24.464844 16.9375 24.492188 L 16.519531 24.832031 L 16.101562 24.492188 C 16.066406 24.464844 15.257812 23.800781 14.441406 22.859375 C 13.285156 21.527344 12.703125 20.316406 12.703125 19.261719 L 12.703125 19.0625 C 12.703125 16.960938 14.414062 15.246094 16.519531 15.246094 C 18.625 15.246094 20.339844 16.960938 20.339844 19.0625 Z M 19.007812 19.0625 C 19.007812 17.691406 17.894531 16.574219 16.519531 16.574219 C 15.148438 16.574219 14.03125 17.691406 14.03125 19.0625 L 14.03125 19.261719 C 14.03125 19.96875 14.53125 20.9375 15.445312 21.988281 C 15.839844 22.445312 16.238281 22.832031 16.523438 23.09375 C 17.472656 22.222656 19.007812 20.542969 19.007812 19.261719 Z M 19.007812 19.0625 " fill-opacity="1" fill-rule="nonzero"/></g><g clip-path="url(#988fe0c798)"><path fill="#ffffff" d="M 28.703125 14.183594 L 16.796875 4.9375 C 16.570312 4.761719 16.257812 4.761719 16.03125 4.9375 L 4.125 14.183594 C 3.851562 14.394531 3.800781 14.789062 4.011719 15.058594 C 4.222656 15.332031 4.617188 15.382812 4.890625 15.171875 L 7.320312 13.28125 L 7.320312 24.203125 C 7.320312 24.550781 7.601562 24.828125 7.945312 24.828125 L 13.394531 24.828125 C 14.042969 25.917969 14.71875 26.898438 15.265625 27.648438 C 15.535156 28.019531 15.957031 28.234375 16.414062 28.234375 C 16.871094 28.234375 17.292969 28.019531 17.5625 27.648438 C 18.109375 26.898438 18.785156 25.917969 19.433594 24.828125 L 24.882812 24.828125 C 25.226562 24.828125 25.507812 24.550781 25.507812 24.203125 L 25.507812 13.28125 L 27.9375 15.171875 C 28.050781 15.257812 28.1875 15.300781 28.320312 15.300781 C 28.507812 15.300781 28.691406 15.21875 28.816406 15.058594 C 29.027344 14.789062 28.976562 14.394531 28.703125 14.183594 Z M 16.554688 26.914062 C 16.464844 27.03125 16.359375 27.03125 16.273438 26.914062 C 15.070312 25.261719 12.265625 21.113281 12.265625 18.300781 C 12.265625 16.015625 14.128906 14.15625 16.414062 14.15625 C 18.699219 14.15625 20.5625 16.015625 20.5625 18.300781 C 20.5625 21.113281 17.757812 25.261719 16.554688 26.914062 Z M 24.257812 23.582031 L 20.136719 23.582031 C 21.070312 21.820312 21.8125 19.917969 21.8125 18.300781 C 21.8125 15.328125 19.390625 12.90625 16.414062 12.90625 C 13.4375 12.90625 11.015625 15.328125 11.015625 18.300781 C 11.015625 19.917969 11.757812 21.820312 12.691406 23.582031 L 8.570312 23.582031 L 8.570312 12.3125 L 16.414062 6.222656 L 24.257812 12.3125 Z M 24.257812 23.582031 " fill-opacity="1" fill-rule="nonzero"/></g><path fill="#ffffff" d="M 16.4375 15.734375 C 15.035156 15.734375 13.890625 16.875 13.890625 18.277344 C 13.890625 19.683594 15.035156 20.824219 16.4375 20.824219 C 17.839844 20.824219 18.984375 19.683594 18.984375 18.277344 C 18.984375 16.875 17.84375 15.734375 16.4375 15.734375 Z M 16.4375 19.574219 C 15.722656 19.574219 15.140625 18.996094 15.140625 18.277344 C 15.140625 17.5625 15.722656 16.980469 16.4375 16.980469 C 17.152344 16.980469 17.734375 17.5625 17.734375 18.277344 C 17.734375 18.996094 17.152344 19.574219 16.4375 19.574219 Z M 16.4375 19.574219 " fill-opacity="1" fill-rule="nonzero"/></svg>