<svg xmlns="http://www.w3.org/2000/svg" xmlns:xlink="http://www.w3.org/1999/xlink" width="138" zoomAndPan="magnify" viewBox="0 0 103.5 32.999998" height="44" preserveAspectRatio="xMidYMid meet" version="1.0"><defs><g/><clipPath id="f2a00d2a71"><path d="M 0 0.078125 L 32.839844 0.078125 L 32.839844 32.917969 L 0 32.917969 Z M 0 0.078125 " clip-rule="nonzero"/></clipPath><clipPath id="5a6ec75267"><path d="M 7.570312 7.542969 L 25.480469 7.542969 L 25.480469 25.457031 L 7.570312 25.457031 Z M 7.570312 7.542969 " clip-rule="nonzero"/></clipPath><clipPath id="a96b9c8525"><path d="M 4.023438 4.105469 L 28.65625 4.105469 L 28.65625 28.734375 L 4.023438 28.734375 Z M 4.023438 4.105469 " clip-rule="nonzero"/></clipPath></defs><g fill="#ffffff" fill-opacity="1"><g transform="translate(34.439094, 19.85877)"><g><path d="M 0.375 -4.03125 C 0.375 -4.820312 0.546875 -5.523438 0.890625 -6.140625 C 1.234375 -6.765625 1.710938 -7.25 2.328125 -7.59375 C 2.941406 -7.945312 3.640625 -8.125 4.421875 -8.125 C 5.367188 -8.125 6.179688 -7.867188 6.859375 -7.359375 C 7.535156 -6.859375 7.988281 -6.175781 8.21875 -5.3125 L 6.078125 -5.3125 C 5.910156 -5.644531 5.679688 -5.898438 5.390625 -6.078125 C 5.097656 -6.253906 4.765625 -6.34375 4.390625 -6.34375 C 3.785156 -6.34375 3.296875 -6.128906 2.921875 -5.703125 C 2.554688 -5.285156 2.375 -4.726562 2.375 -4.03125 C 2.375 -3.320312 2.554688 -2.757812 2.921875 -2.34375 C 3.296875 -1.925781 3.785156 -1.71875 4.390625 -1.71875 C 4.765625 -1.71875 5.097656 -1.800781 5.390625 -1.96875 C 5.679688 -2.144531 5.910156 -2.40625 6.078125 -2.75 L 8.21875 -2.75 C 7.988281 -1.875 7.535156 -1.1875 6.859375 -0.6875 C 6.179688 -0.1875 5.367188 0.0625 4.421875 0.0625 C 3.640625 0.0625 2.941406 -0.109375 2.328125 -0.453125 C 1.710938 -0.804688 1.234375 -1.289062 0.890625 -1.90625 C 0.546875 -2.53125 0.375 -3.238281 0.375 -4.03125 Z M 0.375 -4.03125 "/></g></g></g><g fill="#ffffff" fill-opacity="1"><g transform="translate(43.157027, 19.85877)"><g><path d="M 0.3125 -3.203125 C 0.3125 -3.859375 0.4375 -4.429688 0.6875 -4.921875 C 0.9375 -5.421875 1.273438 -5.800781 1.703125 -6.0625 C 2.128906 -6.332031 2.609375 -6.46875 3.140625 -6.46875 C 3.585938 -6.46875 3.976562 -6.375 4.3125 -6.1875 C 4.65625 -6.007812 4.914062 -5.773438 5.09375 -5.484375 L 5.09375 -6.375 L 7.0625 -6.375 L 7.0625 0 L 5.09375 0 L 5.09375 -0.90625 C 4.90625 -0.601562 4.640625 -0.359375 4.296875 -0.171875 C 3.960938 0.00390625 3.570312 0.09375 3.125 0.09375 C 2.601562 0.09375 2.128906 -0.0390625 1.703125 -0.3125 C 1.273438 -0.582031 0.9375 -0.96875 0.6875 -1.46875 C 0.4375 -1.96875 0.3125 -2.546875 0.3125 -3.203125 Z M 5.09375 -3.1875 C 5.09375 -3.675781 4.957031 -4.0625 4.6875 -4.34375 C 4.414062 -4.625 4.085938 -4.765625 3.703125 -4.765625 C 3.316406 -4.765625 2.988281 -4.625 2.71875 -4.34375 C 2.445312 -4.070312 2.3125 -3.691406 2.3125 -3.203125 C 2.3125 -2.710938 2.445312 -2.320312 2.71875 -2.03125 C 2.988281 -1.75 3.316406 -1.609375 3.703125 -1.609375 C 4.085938 -1.609375 4.414062 -1.75 4.6875 -2.03125 C 4.957031 -2.3125 5.09375 -2.695312 5.09375 -3.1875 Z M 5.09375 -3.1875 "/></g></g></g><g fill="#ffffff" fill-opacity="1"><g transform="translate(50.925361, 19.85877)"><g><path d="M 3.578125 -1.828125 L 4.96875 -6.375 L 7.046875 -6.375 L 4.78125 0 L 2.375 0 L 0.109375 -6.375 L 2.203125 -6.375 Z M 3.578125 -1.828125 "/></g></g></g><g fill="#ffffff" fill-opacity="1"><g transform="translate(58.087331, 19.85877)"><g><path d="M 6.71875 -3.296875 C 6.71875 -3.109375 6.707031 -2.914062 6.6875 -2.71875 L 2.265625 -2.71875 C 2.296875 -2.320312 2.421875 -2.019531 2.640625 -1.8125 C 2.867188 -1.601562 3.148438 -1.5 3.484375 -1.5 C 3.960938 -1.5 4.300781 -1.703125 4.5 -2.109375 L 6.578125 -2.109375 C 6.472656 -1.691406 6.28125 -1.316406 6 -0.984375 C 5.71875 -0.648438 5.367188 -0.382812 4.953125 -0.1875 C 4.535156 0 4.066406 0.09375 3.546875 0.09375 C 2.921875 0.09375 2.363281 -0.0351562 1.875 -0.296875 C 1.382812 -0.566406 1 -0.953125 0.71875 -1.453125 C 0.445312 -1.953125 0.3125 -2.53125 0.3125 -3.1875 C 0.3125 -3.851562 0.445312 -4.429688 0.71875 -4.921875 C 0.988281 -5.421875 1.367188 -5.800781 1.859375 -6.0625 C 2.347656 -6.332031 2.910156 -6.46875 3.546875 -6.46875 C 4.160156 -6.46875 4.707031 -6.335938 5.1875 -6.078125 C 5.664062 -5.828125 6.039062 -5.457031 6.3125 -4.96875 C 6.582031 -4.488281 6.71875 -3.929688 6.71875 -3.296875 Z M 4.71875 -3.8125 C 4.71875 -4.144531 4.601562 -4.410156 4.375 -4.609375 C 4.144531 -4.804688 3.859375 -4.90625 3.515625 -4.90625 C 3.191406 -4.90625 2.914062 -4.804688 2.6875 -4.609375 C 2.46875 -4.421875 2.332031 -4.15625 2.28125 -3.8125 Z M 4.71875 -3.8125 "/></g></g></g><g fill="#ffffff" fill-opacity="1"><g transform="translate(65.134897, 19.85877)"><g><path d="M 3.3125 0.09375 C 2.75 0.09375 2.25 0 1.8125 -0.1875 C 1.382812 -0.382812 1.039062 -0.644531 0.78125 -0.96875 C 0.53125 -1.300781 0.390625 -1.675781 0.359375 -2.09375 L 2.296875 -2.09375 C 2.316406 -1.875 2.414062 -1.691406 2.59375 -1.546875 C 2.78125 -1.410156 3.007812 -1.34375 3.28125 -1.34375 C 3.53125 -1.34375 3.71875 -1.390625 3.84375 -1.484375 C 3.976562 -1.585938 4.046875 -1.710938 4.046875 -1.859375 C 4.046875 -2.046875 3.953125 -2.179688 3.765625 -2.265625 C 3.578125 -2.359375 3.269531 -2.457031 2.84375 -2.5625 C 2.382812 -2.664062 2 -2.773438 1.6875 -2.890625 C 1.382812 -3.015625 1.125 -3.203125 0.90625 -3.453125 C 0.6875 -3.710938 0.578125 -4.0625 0.578125 -4.5 C 0.578125 -4.863281 0.675781 -5.195312 0.875 -5.5 C 1.070312 -5.800781 1.367188 -6.035156 1.765625 -6.203125 C 2.160156 -6.378906 2.628906 -6.46875 3.171875 -6.46875 C 3.972656 -6.46875 4.601562 -6.269531 5.0625 -5.875 C 5.519531 -5.476562 5.785156 -4.953125 5.859375 -4.296875 L 4.046875 -4.296875 C 4.015625 -4.515625 3.914062 -4.6875 3.75 -4.8125 C 3.59375 -4.945312 3.378906 -5.015625 3.109375 -5.015625 C 2.878906 -5.015625 2.703125 -4.972656 2.578125 -4.890625 C 2.460938 -4.804688 2.40625 -4.6875 2.40625 -4.53125 C 2.40625 -4.34375 2.5 -4.203125 2.6875 -4.109375 C 2.882812 -4.023438 3.191406 -3.9375 3.609375 -3.84375 C 4.078125 -3.71875 4.457031 -3.597656 4.75 -3.484375 C 5.050781 -3.367188 5.3125 -3.175781 5.53125 -2.90625 C 5.757812 -2.644531 5.878906 -2.296875 5.890625 -1.859375 C 5.890625 -1.484375 5.785156 -1.144531 5.578125 -0.84375 C 5.367188 -0.550781 5.066406 -0.320312 4.671875 -0.15625 C 4.273438 0.0078125 3.820312 0.09375 3.3125 0.09375 Z M 3.3125 0.09375 "/></g></g></g><g fill="#ffffff" fill-opacity="1"><g transform="translate(71.518891, 19.85877)"><g/></g></g><g fill="#ffffff" fill-opacity="1"><g transform="translate(73.944352, 19.85877)"><g><path d="M 2.671875 -1.515625 L 5.234375 -1.515625 L 5.234375 0 L 0.703125 0 L 0.703125 -8.03125 L 2.671875 -8.03125 Z M 2.671875 -1.515625 "/></g></g></g><g fill="#ffffff" fill-opacity="1"><g transform="translate(79.40164, 19.85877)"><g><path d="M 0.3125 -3.203125 C 0.3125 -3.859375 0.4375 -4.429688 0.6875 -4.921875 C 0.9375 -5.421875 1.273438 -5.800781 1.703125 -6.0625 C 2.128906 -6.332031 2.609375 -6.46875 3.140625 -6.46875 C 3.585938 -6.46875 3.976562 -6.375 4.3125 -6.1875 C 4.65625 -6.007812 4.914062 -5.773438 5.09375 -5.484375 L 5.09375 -6.375 L 7.0625 -6.375 L 7.0625 0 L 5.09375 0 L 5.09375 -0.90625 C 4.90625 -0.601562 4.640625 -0.359375 4.296875 -0.171875 C 3.960938 0.00390625 3.570312 0.09375 3.125 0.09375 C 2.601562 0.09375 2.128906 -0.0390625 1.703125 -0.3125 C 1.273438 -0.582031 0.9375 -0.96875 0.6875 -1.46875 C 0.4375 -1.96875 0.3125 -2.546875 0.3125 -3.203125 Z M 5.09375 -3.1875 C 5.09375 -3.675781 4.957031 -4.0625 4.6875 -4.34375 C 4.414062 -4.625 4.085938 -4.765625 3.703125 -4.765625 C 3.316406 -4.765625 2.988281 -4.625 2.71875 -4.34375 C 2.445312 -4.070312 2.3125 -3.691406 2.3125 -3.203125 C 2.3125 -2.710938 2.445312 -2.320312 2.71875 -2.03125 C 2.988281 -1.75 3.316406 -1.609375 3.703125 -1.609375 C 4.085938 -1.609375 4.414062 -1.75 4.6875 -2.03125 C 4.957031 -2.3125 5.09375 -2.695312 5.09375 -3.1875 Z M 5.09375 -3.1875 "/></g></g></g><g fill="#ffffff" fill-opacity="1"><g transform="translate(87.169975, 19.85877)"><g><path d="M 4.59375 -6.453125 C 5.34375 -6.453125 5.941406 -6.207031 6.390625 -5.71875 C 6.835938 -5.238281 7.0625 -4.578125 7.0625 -3.734375 L 7.0625 0 L 5.109375 0 L 5.109375 -3.46875 C 5.109375 -3.894531 5 -4.222656 4.78125 -4.453125 C 4.5625 -4.691406 4.265625 -4.8125 3.890625 -4.8125 C 3.515625 -4.8125 3.21875 -4.691406 3 -4.453125 C 2.78125 -4.222656 2.671875 -3.894531 2.671875 -3.46875 L 2.671875 0 L 0.703125 0 L 0.703125 -6.375 L 2.671875 -6.375 L 2.671875 -5.53125 C 2.867188 -5.8125 3.132812 -6.035156 3.46875 -6.203125 C 3.800781 -6.367188 4.175781 -6.453125 4.59375 -6.453125 Z M 4.59375 -6.453125 "/></g></g></g><g fill="#ffffff" fill-opacity="1"><g transform="translate(94.881114, 19.85877)"><g><path d="M 0.3125 -3.203125 C 0.3125 -3.859375 0.4375 -4.429688 0.6875 -4.921875 C 0.9375 -5.421875 1.273438 -5.800781 1.703125 -6.0625 C 2.128906 -6.332031 2.609375 -6.46875 3.140625 -6.46875 C 3.554688 -6.46875 3.9375 -6.378906 4.28125 -6.203125 C 4.625 -6.035156 4.894531 -5.800781 5.09375 -5.5 L 5.09375 -8.46875 L 7.0625 -8.46875 L 7.0625 0 L 5.09375 0 L 5.09375 -0.921875 C 4.914062 -0.609375 4.65625 -0.359375 4.3125 -0.171875 C 3.976562 0.00390625 3.585938 0.09375 3.140625 0.09375 C 2.609375 0.09375 2.128906 -0.0390625 1.703125 -0.3125 C 1.273438 -0.582031 0.9375 -0.96875 0.6875 -1.46875 C 0.4375 -1.96875 0.3125 -2.546875 0.3125 -3.203125 Z M 5.09375 -3.1875 C 5.09375 -3.675781 4.957031 -4.0625 4.6875 -4.34375 C 4.414062 -4.625 4.085938 -4.765625 3.703125 -4.765625 C 3.316406 -4.765625 2.988281 -4.625 2.71875 -4.34375 C 2.445312 -4.070312 2.3125 -3.691406 2.3125 -3.203125 C 2.3125 -2.710938 2.445312 -2.320312 2.71875 -2.03125 C 2.988281 -1.75 3.316406 -1.609375 3.703125 -1.609375 C 4.085938 -1.609375 4.414062 -1.75 4.6875 -2.03125 C 4.957031 -2.3125 5.09375 -2.695312 5.09375 -3.1875 Z M 5.09375 -3.1875 "/></g></g></g><g clip-path="url(#f2a00d2a71)"><path fill="#eb6753" d="M 15.03125 0.078125 L 18.019531 0.078125 C 19 0.078125 19.96875 0.175781 20.929688 0.367188 C 21.890625 0.558594 22.824219 0.839844 23.730469 1.214844 C 24.636719 1.589844 25.496094 2.050781 26.3125 2.59375 C 27.125 3.140625 27.882812 3.757812 28.574219 4.453125 C 29.265625 5.144531 29.886719 5.898438 30.429688 6.714844 C 30.976562 7.527344 31.433594 8.390625 31.808594 9.292969 C 32.183594 10.199219 32.46875 11.132812 32.660156 12.09375 C 32.851562 13.054688 32.945312 14.027344 32.945312 15.007812 L 32.945312 17.992188 C 32.945312 18.972656 32.851562 19.945312 32.660156 20.90625 C 32.46875 21.867188 32.183594 22.800781 31.808594 23.707031 C 31.433594 24.609375 30.976562 25.472656 30.429688 26.285156 C 29.886719 27.101562 29.265625 27.855469 28.574219 28.546875 C 27.882812 29.242188 27.125 29.859375 26.3125 30.40625 C 25.496094 30.949219 24.636719 31.410156 23.730469 31.785156 C 22.824219 32.160156 21.890625 32.441406 20.929688 32.632812 C 19.96875 32.824219 19 32.921875 18.019531 32.921875 L 15.03125 32.921875 C 14.050781 32.921875 13.082031 32.824219 12.121094 32.632812 C 11.160156 32.441406 10.226562 32.160156 9.320312 31.785156 C 8.414062 31.410156 7.554688 30.949219 6.738281 30.40625 C 5.925781 29.859375 5.171875 29.242188 4.476562 28.546875 C 3.785156 27.855469 3.164062 27.101562 2.621094 26.285156 C 2.078125 25.472656 1.617188 24.609375 1.242188 23.707031 C 0.867188 22.800781 0.582031 21.867188 0.390625 20.90625 C 0.199219 19.945312 0.105469 18.972656 0.105469 17.992188 L 0.105469 15.007812 C 0.105469 14.027344 0.199219 13.054688 0.390625 12.09375 C 0.582031 11.132812 0.867188 10.199219 1.242188 9.292969 C 1.617188 8.390625 2.078125 7.527344 2.621094 6.714844 C 3.164062 5.898438 3.785156 5.144531 4.476562 4.453125 C 5.171875 3.757812 5.925781 3.140625 6.738281 2.59375 C 7.554688 2.050781 8.414062 1.589844 9.320312 1.214844 C 10.226562 0.839844 11.160156 0.558594 12.121094 0.367188 C 13.082031 0.175781 14.050781 0.078125 15.03125 0.078125 Z M 15.03125 0.078125 " fill-opacity="1" fill-rule="nonzero"/></g><g clip-path="url(#5a6ec75267)"><path fill="#eb6753" d="M 24.566406 16.585938 L 23.726562 15.859375 L 23.726562 22.730469 C 23.726562 23.890625 22.785156 24.828125 21.628906 24.828125 L 19.109375 24.828125 C 19.320312 24.613281 19.546875 24.371094 19.769531 24.113281 C 19.96875 23.882812 20.152344 23.65625 20.324219 23.429688 L 21.628906 23.429688 C 22.015625 23.429688 22.328125 23.117188 22.328125 22.730469 L 22.328125 14.644531 L 16.527344 9.605469 L 10.722656 14.644531 L 10.722656 22.730469 C 10.722656 23.117188 11.035156 23.429688 11.421875 23.429688 L 12.726562 23.429688 C 12.898438 23.65625 13.082031 23.882812 13.28125 24.113281 C 13.503906 24.371094 13.730469 24.613281 13.941406 24.828125 L 11.421875 24.828125 C 10.265625 24.828125 9.324219 23.890625 9.324219 22.730469 L 9.324219 15.859375 L 8.484375 16.585938 L 7.570312 15.53125 L 16.527344 7.753906 L 25.480469 15.53125 Z M 16.527344 18.148438 C 15.945312 18.148438 15.476562 18.617188 15.476562 19.199219 C 15.476562 19.777344 15.945312 20.246094 16.527344 20.246094 C 17.105469 20.246094 17.574219 19.777344 17.574219 19.199219 C 17.574219 18.617188 17.105469 18.148438 16.527344 18.148438 Z M 20.542969 19.410156 C 20.542969 20.519531 19.929688 21.792969 18.714844 23.195312 C 17.855469 24.1875 17.003906 24.886719 16.96875 24.914062 L 16.527344 25.273438 L 16.085938 24.914062 C 16.046875 24.886719 15.195312 24.1875 14.335938 23.195312 C 13.121094 21.792969 12.507812 20.519531 12.507812 19.410156 L 12.507812 19.199219 C 12.507812 16.984375 14.308594 15.179688 16.527344 15.179688 C 18.742188 15.179688 20.542969 16.984375 20.542969 19.199219 Z M 19.148438 19.199219 C 19.148438 17.753906 17.972656 16.578125 16.527344 16.578125 C 15.082031 16.578125 13.90625 17.753906 13.90625 19.199219 L 13.90625 19.410156 C 13.90625 20.152344 14.433594 21.171875 15.394531 22.28125 C 15.808594 22.761719 16.226562 23.167969 16.527344 23.445312 C 17.527344 22.527344 19.148438 20.757812 19.148438 19.410156 Z M 19.148438 19.199219 " fill-opacity="1" fill-rule="nonzero"/></g><g clip-path="url(#a96b9c8525)"><path fill="#ffffff" d="M 16.40625 4.105469 C 19.839844 4.105469 22.933594 5.476562 25.183594 7.726562 C 27.414062 9.976562 28.808594 13.070312 28.808594 16.484375 C 28.808594 19.898438 27.414062 23.011719 25.183594 25.242188 C 22.933594 27.492188 19.839844 28.886719 16.40625 28.886719 C 12.992188 28.886719 9.898438 27.492188 7.648438 25.242188 C 5.417969 23.011719 4.023438 19.898438 4.023438 16.484375 C 4.023438 13.070312 5.417969 9.976562 7.652344 7.726562 C 9.902344 5.476562 12.992188 4.105469 16.40625 4.105469 Z M 24.761719 8.160156 C 22.605469 6.023438 19.664062 4.699219 16.40625 4.699219 C 13.148438 4.699219 10.210938 6.023438 8.078125 8.152344 C 5.949219 10.285156 4.644531 13.230469 4.644531 16.480469 C 4.644531 19.730469 5.953125 22.679688 8.078125 24.808594 C 10.207031 26.953125 13.15625 28.261719 16.40625 28.261719 C 19.65625 28.261719 22.605469 26.953125 24.753906 24.808594 C 26.878906 22.679688 28.1875 19.730469 28.1875 16.480469 C 28.1875 13.230469 26.890625 10.285156 24.761719 8.160156 Z M 24.761719 8.160156 " fill-opacity="1" fill-rule="nonzero"/></g><path fill="#ffffff" d="M 14.585938 27.289062 C 17.921875 23.300781 26.597656 18.800781 26.597656 18.800781 C 23.019531 21.335938 19.375 25.351562 17.609375 27.375 C 17.21875 27.414062 16.8125 27.433594 16.402344 27.433594 C 15.796875 27.433594 15.175781 27.390625 14.585938 27.289062 Z M 14.585938 27.289062 " fill-opacity="1" fill-rule="nonzero"/><path fill="#ffffff" d="M 10.84375 25.917969 C 15.15625 22.128906 26.089844 18.613281 26.089844 18.613281 C 20.445312 21.066406 15.121094 25.441406 13.316406 27 C 12.441406 26.742188 11.617188 26.367188 10.84375 25.917969 Z M 10.84375 25.917969 " fill-opacity="1" fill-rule="nonzero"/><path fill="#ffffff" d="M 19.191406 27.082031 C 22.382812 22.503906 25.71875 20.042969 27.03125 19.203125 C 26.539062 21.144531 25.535156 22.863281 24.167969 24.238281 C 22.808594 25.585938 21.101562 26.597656 19.191406 27.082031 Z M 19.191406 27.082031 " fill-opacity="1" fill-rule="nonzero"/><path fill="#ffffff" d="M 5.808594 19.207031 C 6.828125 19.878906 9.101562 21.496094 11.558594 24.386719 C 11.023438 24.738281 10.558594 25.101562 10.125 25.453125 C 9.589844 25.078125 9.125 24.679688 8.671875 24.242188 C 7.304688 22.871094 6.300781 21.148438 5.808594 19.207031 Z M 5.808594 19.207031 " fill-opacity="1" fill-rule="nonzero"/><path fill="#ffffff" d="M 6.238281 18.796875 C 6.238281 18.796875 9.988281 20.738281 13.507812 23.210938 C 13.035156 23.480469 12.589844 23.746094 12.132812 24.007812 C 10.390625 22.234375 8.308594 20.273438 6.238281 18.796875 Z M 6.238281 18.796875 " fill-opacity="1" fill-rule="nonzero"/><path fill="#ffffff" d="M 6.726562 18.613281 C 6.726562 18.613281 11.265625 20.0625 15.648438 22.109375 C 15.132812 22.359375 14.644531 22.605469 14.171875 22.863281 C 11.988281 21.351562 9.386719 19.777344 6.726562 18.613281 Z M 6.726562 18.613281 " fill-opacity="1" fill-rule="nonzero"/><path fill="#ffffff" d="M 11.230469 18.304688 C 11.230469 17.914062 11.269531 17.550781 11.355469 17.199219 L 5.507812 15.621094 C 5.488281 15.910156 5.46875 16.199219 5.46875 16.480469 C 5.46875 16.808594 5.488281 17.128906 5.507812 17.460938 L 6.304688 17.730469 L 6.953125 17.9375 C 7.6875 18.183594 8.429688 18.453125 9.164062 18.710938 C 9.390625 18.769531 9.597656 18.855469 9.8125 18.9375 C 10.328125 19.121094 10.855469 19.332031 11.371094 19.535156 C 11.296875 19.148438 11.230469 18.714844 11.230469 18.304688 Z M 11.230469 18.304688 " fill-opacity="1" fill-rule="nonzero"/><path fill="#ffffff" d="M 5.542969 15.113281 L 11.472656 16.707031 C 11.558594 16.441406 11.683594 16.171875 11.800781 15.933594 L 6.15625 12.664062 C 5.847656 13.433594 5.644531 14.273438 5.542969 15.113281 Z M 5.542969 15.113281 " fill-opacity="1" fill-rule="nonzero"/><path fill="#ffffff" d="M 6.34375 12.183594 L 12.050781 15.472656 C 12.210938 15.246094 12.375 15.023438 12.585938 14.800781 L 7.671875 9.886719 C 7.136719 10.613281 6.6875 11.371094 6.34375 12.183594 Z M 6.34375 12.183594 " fill-opacity="1" fill-rule="nonzero"/><path fill="#ffffff" d="M 7.976562 9.511719 L 12.925781 14.464844 C 13.15625 14.28125 13.378906 14.089844 13.601562 13.949219 L 9.957031 7.644531 C 9.507812 7.96875 9.082031 8.335938 8.667969 8.75 C 8.425781 8.996094 8.203125 9.242188 7.976562 9.511719 Z M 7.976562 9.511719 " fill-opacity="1" fill-rule="nonzero"/><path fill="#ffffff" d="M 10.390625 7.335938 L 14.050781 13.679688 C 14.300781 13.554688 14.566406 13.453125 14.824219 13.351562 L 12.886719 6.105469 C 11.988281 6.414062 11.152344 6.824219 10.390625 7.335938 Z M 10.390625 7.335938 " fill-opacity="1" fill-rule="nonzero"/><path fill="#ffffff" d="M 13.382812 5.960938 L 15.324219 13.234375 C 15.59375 13.175781 15.878906 13.128906 16.164062 13.128906 L 16.164062 5.535156 C 15.195312 5.554688 14.261719 5.699219 13.382812 5.960938 Z M 13.382812 5.960938 " fill-opacity="1" fill-rule="nonzero"/><path fill="#ffffff" d="M 16.671875 5.535156 L 16.671875 13.128906 C 16.960938 13.128906 17.25 13.167969 17.511719 13.234375 L 19.453125 5.96875 C 18.582031 5.699219 17.636719 5.554688 16.671875 5.535156 Z M 16.671875 5.535156 " fill-opacity="1" fill-rule="nonzero"/><path fill="#ffffff" d="M 19.949219 6.105469 L 18.007812 13.347656 C 18.273438 13.453125 18.542969 13.554688 18.78125 13.675781 L 22.441406 7.332031 C 21.664062 6.824219 20.832031 6.414062 19.949219 6.105469 Z M 19.949219 6.105469 " fill-opacity="1" fill-rule="nonzero"/><path fill="#ffffff" d="M 22.855469 7.644531 L 19.230469 13.949219 C 19.460938 14.089844 19.683594 14.273438 19.878906 14.464844 L 24.851562 9.511719 C 24.625 9.242188 24.402344 8.996094 24.15625 8.757812 C 23.75 8.339844 23.324219 7.976562 22.855469 7.644531 Z M 22.855469 7.644531 " fill-opacity="1" fill-rule="nonzero"/><path fill="#ffffff" d="M 25.164062 9.894531 L 20.253906 14.804688 C 20.4375 15.03125 20.625 15.257812 20.769531 15.480469 L 26.496094 12.183594 C 26.152344 11.371094 25.699219 10.613281 25.164062 9.894531 Z M 25.164062 9.894531 " fill-opacity="1" fill-rule="nonzero"/><path fill="#ffffff" d="M 26.679688 12.660156 L 21.035156 15.929688 C 21.160156 16.179688 21.261719 16.445312 21.363281 16.703125 L 27.277344 15.105469 C 27.175781 14.273438 26.96875 13.433594 26.679688 12.660156 Z M 26.679688 12.660156 " fill-opacity="1" fill-rule="nonzero"/><path fill="#ffffff" d="M 27.339844 15.628906 L 21.492188 17.203125 C 21.574219 17.554688 21.617188 17.917969 21.617188 18.308594 C 21.617188 18.722656 21.554688 19.148438 21.453125 19.539062 C 21.949219 19.355469 22.414062 19.167969 22.882812 19.003906 C 23.867188 18.632812 24.886719 18.269531 25.898438 17.9375 L 26.394531 17.773438 L 27.335938 17.445312 C 27.375 17.140625 27.394531 16.816406 27.394531 16.484375 C 27.378906 16.199219 27.359375 15.910156 27.339844 15.628906 Z M 27.339844 15.628906 " fill-opacity="1" fill-rule="nonzero"/></svg>