<svg xmlns="http://www.w3.org/2000/svg" xmlns:xlink="http://www.w3.org/1999/xlink" width="138" zoomAndPan="magnify" viewBox="0 0 103.5 32.999998" height="44" preserveAspectRatio="xMidYMid meet" version="1.0"><defs><g/><clipPath id="5ffab6e255"><path d="M 0 1.722656 L 29.855469 1.722656 L 29.855469 31.578125 L 0 31.578125 Z M 0 1.722656 " clip-rule="nonzero"/></clipPath><clipPath id="a9532e35e5"><path d="M 6.816406 8.4375 L 22.9375 8.4375 L 22.9375 24.558594 L 6.816406 24.558594 Z M 6.816406 8.4375 " clip-rule="nonzero"/></clipPath><clipPath id="1ff2f2fc21"><path d="M 2.382812 4.105469 L 27.011719 4.105469 L 27.011719 28.734375 L 2.382812 28.734375 Z M 2.382812 4.105469 " clip-rule="nonzero"/></clipPath></defs><g fill="#000000" fill-opacity="1"><g transform="translate(34.439094, 19.85877)"><g><path d="M 0.375 -4.03125 C 0.375 -4.820312 0.546875 -5.523438 0.890625 -6.140625 C 1.234375 -6.765625 1.710938 -7.25 2.328125 -7.59375 C 2.941406 -7.945312 3.640625 -8.125 4.421875 -8.125 C 5.367188 -8.125 6.179688 -7.867188 6.859375 -7.359375 C 7.535156 -6.859375 7.988281 -6.175781 8.21875 -5.3125 L 6.078125 -5.3125 C 5.910156 -5.644531 5.679688 -5.898438 5.390625 -6.078125 C 5.097656 -6.253906 4.765625 -6.34375 4.390625 -6.34375 C 3.785156 -6.34375 3.296875 -6.128906 2.921875 -5.703125 C 2.554688 -5.285156 2.375 -4.726562 2.375 -4.03125 C 2.375 -3.320312 2.554688 -2.757812 2.921875 -2.34375 C 3.296875 -1.925781 3.785156 -1.71875 4.390625 -1.71875 C 4.765625 -1.71875 5.097656 -1.800781 5.390625 -1.96875 C 5.679688 -2.144531 5.910156 -2.40625 6.078125 -2.75 L 8.21875 -2.75 C 7.988281 -1.875 7.535156 -1.1875 6.859375 -0.6875 C 6.179688 -0.1875 5.367188 0.0625 4.421875 0.0625 C 3.640625 0.0625 2.941406 -0.109375 2.328125 -0.453125 C 1.710938 -0.804688 1.234375 -1.289062 0.890625 -1.90625 C 0.546875 -2.53125 0.375 -3.238281 0.375 -4.03125 Z M 0.375 -4.03125 "/></g></g></g><g fill="#000000" fill-opacity="1"><g transform="translate(43.157027, 19.85877)"><g><path d="M 0.3125 -3.203125 C 0.3125 -3.859375 0.4375 -4.429688 0.6875 -4.921875 C 0.9375 -5.421875 1.273438 -5.800781 1.703125 -6.0625 C 2.128906 -6.332031 2.609375 -6.46875 3.140625 -6.46875 C 3.585938 -6.46875 3.976562 -6.375 4.3125 -6.1875 C 4.65625 -6.007812 4.914062 -5.773438 5.09375 -5.484375 L 5.09375 -6.375 L 7.0625 -6.375 L 7.0625 0 L 5.09375 0 L 5.09375 -0.90625 C 4.90625 -0.601562 4.640625 -0.359375 4.296875 -0.171875 C 3.960938 0.00390625 3.570312 0.09375 3.125 0.09375 C 2.601562 0.09375 2.128906 -0.0390625 1.703125 -0.3125 C 1.273438 -0.582031 0.9375 -0.96875 0.6875 -1.46875 C 0.4375 -1.96875 0.3125 -2.546875 0.3125 -3.203125 Z M 5.09375 -3.1875 C 5.09375 -3.675781 4.957031 -4.0625 4.6875 -4.34375 C 4.414062 -4.625 4.085938 -4.765625 3.703125 -4.765625 C 3.316406 -4.765625 2.988281 -4.625 2.71875 -4.34375 C 2.445312 -4.070312 2.3125 -3.691406 2.3125 -3.203125 C 2.3125 -2.710938 2.445312 -2.320312 2.71875 -2.03125 C 2.988281 -1.75 3.316406 -1.609375 3.703125 -1.609375 C 4.085938 -1.609375 4.414062 -1.75 4.6875 -2.03125 C 4.957031 -2.3125 5.09375 -2.695312 5.09375 -3.1875 Z M 5.09375 -3.1875 "/></g></g></g><g fill="#000000" fill-opacity="1"><g transform="translate(50.925361, 19.85877)"><g><path d="M 3.578125 -1.828125 L 4.96875 -6.375 L 7.046875 -6.375 L 4.78125 0 L 2.375 0 L 0.109375 -6.375 L 2.203125 -6.375 Z M 3.578125 -1.828125 "/></g></g></g><g fill="#000000" fill-opacity="1"><g transform="translate(58.087331, 19.85877)"><g><path d="M 6.71875 -3.296875 C 6.71875 -3.109375 6.707031 -2.914062 6.6875 -2.71875 L 2.265625 -2.71875 C 2.296875 -2.320312 2.421875 -2.019531 2.640625 -1.8125 C 2.867188 -1.601562 3.148438 -1.5 3.484375 -1.5 C 3.960938 -1.5 4.300781 -1.703125 4.5 -2.109375 L 6.578125 -2.109375 C 6.472656 -1.691406 6.28125 -1.316406 6 -0.984375 C 5.71875 -0.648438 5.367188 -0.382812 4.953125 -0.1875 C 4.535156 0 4.066406 0.09375 3.546875 0.09375 C 2.921875 0.09375 2.363281 -0.0351562 1.875 -0.296875 C 1.382812 -0.566406 1 -0.953125 0.71875 -1.453125 C 0.445312 -1.953125 0.3125 -2.53125 0.3125 -3.1875 C 0.3125 -3.851562 0.445312 -4.429688 0.71875 -4.921875 C 0.988281 -5.421875 1.367188 -5.800781 1.859375 -6.0625 C 2.347656 -6.332031 2.910156 -6.46875 3.546875 -6.46875 C 4.160156 -6.46875 4.707031 -6.335938 5.1875 -6.078125 C 5.664062 -5.828125 6.039062 -5.457031 6.3125 -4.96875 C 6.582031 -4.488281 6.71875 -3.929688 6.71875 -3.296875 Z M 4.71875 -3.8125 C 4.71875 -4.144531 4.601562 -4.410156 4.375 -4.609375 C 4.144531 -4.804688 3.859375 -4.90625 3.515625 -4.90625 C 3.191406 -4.90625 2.914062 -4.804688 2.6875 -4.609375 C 2.46875 -4.421875 2.332031 -4.15625 2.28125 -3.8125 Z M 4.71875 -3.8125 "/></g></g></g><g fill="#000000" fill-opacity="1"><g transform="translate(65.134897, 19.85877)"><g><path d="M 3.3125 0.09375 C 2.75 0.09375 2.25 0 1.8125 -0.1875 C 1.382812 -0.382812 1.039062 -0.644531 0.78125 -0.96875 C 0.53125 -1.300781 0.390625 -1.675781 0.359375 -2.09375 L 2.296875 -2.09375 C 2.316406 -1.875 2.414062 -1.691406 2.59375 -1.546875 C 2.78125 -1.410156 3.007812 -1.34375 3.28125 -1.34375 C 3.53125 -1.34375 3.71875 -1.390625 3.84375 -1.484375 C 3.976562 -1.585938 4.046875 -1.710938 4.046875 -1.859375 C 4.046875 -2.046875 3.953125 -2.179688 3.765625 -2.265625 C 3.578125 -2.359375 3.269531 -2.457031 2.84375 -2.5625 C 2.382812 -2.664062 2 -2.773438 1.6875 -2.890625 C 1.382812 -3.015625 1.125 -3.203125 0.90625 -3.453125 C 0.6875 -3.710938 0.578125 -4.0625 0.578125 -4.5 C 0.578125 -4.863281 0.675781 -5.195312 0.875 -5.5 C 1.070312 -5.800781 1.367188 -6.035156 1.765625 -6.203125 C 2.160156 -6.378906 2.628906 -6.46875 3.171875 -6.46875 C 3.972656 -6.46875 4.601562 -6.269531 5.0625 -5.875 C 5.519531 -5.476562 5.785156 -4.953125 5.859375 -4.296875 L 4.046875 -4.296875 C 4.015625 -4.515625 3.914062 -4.6875 3.75 -4.8125 C 3.59375 -4.945312 3.378906 -5.015625 3.109375 -5.015625 C 2.878906 -5.015625 2.703125 -4.972656 2.578125 -4.890625 C 2.460938 -4.804688 2.40625 -4.6875 2.40625 -4.53125 C 2.40625 -4.34375 2.5 -4.203125 2.6875 -4.109375 C 2.882812 -4.023438 3.191406 -3.9375 3.609375 -3.84375 C 4.078125 -3.71875 4.457031 -3.597656 4.75 -3.484375 C 5.050781 -3.367188 5.3125 -3.175781 5.53125 -2.90625 C 5.757812 -2.644531 5.878906 -2.296875 5.890625 -1.859375 C 5.890625 -1.484375 5.785156 -1.144531 5.578125 -0.84375 C 5.367188 -0.550781 5.066406 -0.320312 4.671875 -0.15625 C 4.273438 0.0078125 3.820312 0.09375 3.3125 0.09375 Z M 3.3125 0.09375 "/></g></g></g><g fill="#000000" fill-opacity="1"><g transform="translate(71.518891, 19.85877)"><g/></g></g><g fill="#000000" fill-opacity="1"><g transform="translate(73.944352, 19.85877)"><g><path d="M 2.671875 -1.515625 L 5.234375 -1.515625 L 5.234375 0 L 0.703125 0 L 0.703125 -8.03125 L 2.671875 -8.03125 Z M 2.671875 -1.515625 "/></g></g></g><g fill="#000000" fill-opacity="1"><g transform="translate(79.40164, 19.85877)"><g><path d="M 0.3125 -3.203125 C 0.3125 -3.859375 0.4375 -4.429688 0.6875 -4.921875 C 0.9375 -5.421875 1.273438 -5.800781 1.703125 -6.0625 C 2.128906 -6.332031 2.609375 -6.46875 3.140625 -6.46875 C 3.585938 -6.46875 3.976562 -6.375 4.3125 -6.1875 C 4.65625 -6.007812 4.914062 -5.773438 5.09375 -5.484375 L 5.09375 -6.375 L 7.0625 -6.375 L 7.0625 0 L 5.09375 0 L 5.09375 -0.90625 C 4.90625 -0.601562 4.640625 -0.359375 4.296875 -0.171875 C 3.960938 0.00390625 3.570312 0.09375 3.125 0.09375 C 2.601562 0.09375 2.128906 -0.0390625 1.703125 -0.3125 C 1.273438 -0.582031 0.9375 -0.96875 0.6875 -1.46875 C 0.4375 -1.96875 0.3125 -2.546875 0.3125 -3.203125 Z M 5.09375 -3.1875 C 5.09375 -3.675781 4.957031 -4.0625 4.6875 -4.34375 C 4.414062 -4.625 4.085938 -4.765625 3.703125 -4.765625 C 3.316406 -4.765625 2.988281 -4.625 2.71875 -4.34375 C 2.445312 -4.070312 2.3125 -3.691406 2.3125 -3.203125 C 2.3125 -2.710938 2.445312 -2.320312 2.71875 -2.03125 C 2.988281 -1.75 3.316406 -1.609375 3.703125 -1.609375 C 4.085938 -1.609375 4.414062 -1.75 4.6875 -2.03125 C 4.957031 -2.3125 5.09375 -2.695312 5.09375 -3.1875 Z M 5.09375 -3.1875 "/></g></g></g><g fill="#000000" fill-opacity="1"><g transform="translate(87.169975, 19.85877)"><g><path d="M 4.59375 -6.453125 C 5.34375 -6.453125 5.941406 -6.207031 6.390625 -5.71875 C 6.835938 -5.238281 7.0625 -4.578125 7.0625 -3.734375 L 7.0625 0 L 5.109375 0 L 5.109375 -3.46875 C 5.109375 -3.894531 5 -4.222656 4.78125 -4.453125 C 4.5625 -4.691406 4.265625 -4.8125 3.890625 -4.8125 C 3.515625 -4.8125 3.21875 -4.691406 3 -4.453125 C 2.78125 -4.222656 2.671875 -3.894531 2.671875 -3.46875 L 2.671875 0 L 0.703125 0 L 0.703125 -6.375 L 2.671875 -6.375 L 2.671875 -5.53125 C 2.867188 -5.8125 3.132812 -6.035156 3.46875 -6.203125 C 3.800781 -6.367188 4.175781 -6.453125 4.59375 -6.453125 Z M 4.59375 -6.453125 "/></g></g></g><g fill="#000000" fill-opacity="1"><g transform="translate(94.881114, 19.85877)"><g><path d="M 0.3125 -3.203125 C 0.3125 -3.859375 0.4375 -4.429688 0.6875 -4.921875 C 0.9375 -5.421875 1.273438 -5.800781 1.703125 -6.0625 C 2.128906 -6.332031 2.609375 -6.46875 3.140625 -6.46875 C 3.554688 -6.46875 3.9375 -6.378906 4.28125 -6.203125 C 4.625 -6.035156 4.894531 -5.800781 5.09375 -5.5 L 5.09375 -8.46875 L 7.0625 -8.46875 L 7.0625 0 L 5.09375 0 L 5.09375 -0.921875 C 4.914062 -0.609375 4.65625 -0.359375 4.3125 -0.171875 C 3.976562 0.00390625 3.585938 0.09375 3.140625 0.09375 C 2.609375 0.09375 2.128906 -0.0390625 1.703125 -0.3125 C 1.273438 -0.582031 0.9375 -0.96875 0.6875 -1.46875 C 0.4375 -1.96875 0.3125 -2.546875 0.3125 -3.203125 Z M 5.09375 -3.1875 C 5.09375 -3.675781 4.957031 -4.0625 4.6875 -4.34375 C 4.414062 -4.625 4.085938 -4.765625 3.703125 -4.765625 C 3.316406 -4.765625 2.988281 -4.625 2.71875 -4.34375 C 2.445312 -4.070312 2.3125 -3.691406 2.3125 -3.203125 C 2.3125 -2.710938 2.445312 -2.320312 2.71875 -2.03125 C 2.988281 -1.75 3.316406 -1.609375 3.703125 -1.609375 C 4.085938 -1.609375 4.414062 -1.75 4.6875 -2.03125 C 4.957031 -2.3125 5.09375 -2.695312 5.09375 -3.1875 Z M 5.09375 -3.1875 "/></g></g></g><g clip-path="url(#5ffab6e255)"><path fill="#eb6753" d="M 13.535156 1.722656 L 16.222656 1.722656 C 17.101562 1.722656 17.976562 1.808594 18.84375 1.980469 C 19.707031 2.152344 20.546875 2.40625 21.363281 2.742188 C 22.175781 3.082031 22.949219 3.496094 23.683594 3.984375 C 24.417969 4.476562 25.097656 5.03125 25.71875 5.65625 C 26.34375 6.28125 26.902344 6.957031 27.390625 7.691406 C 27.878906 8.425781 28.292969 9.199219 28.632812 10.015625 C 28.96875 10.828125 29.222656 11.667969 29.394531 12.535156 C 29.566406 13.398438 29.65625 14.273438 29.65625 15.15625 L 29.65625 17.839844 C 29.65625 18.722656 29.566406 19.597656 29.394531 20.460938 C 29.222656 21.328125 28.96875 22.167969 28.632812 22.980469 C 28.292969 23.796875 27.878906 24.570312 27.390625 25.304688 C 26.902344 26.039062 26.34375 26.714844 25.71875 27.339844 C 25.097656 27.964844 24.417969 28.519531 23.683594 29.011719 C 22.949219 29.5 22.175781 29.914062 21.363281 30.25 C 20.546875 30.589844 19.707031 30.84375 18.84375 31.015625 C 17.976562 31.1875 17.101562 31.273438 16.222656 31.273438 L 13.535156 31.273438 C 12.652344 31.273438 11.777344 31.1875 10.914062 31.015625 C 10.050781 30.84375 9.210938 30.589844 8.394531 30.25 C 7.578125 29.914062 6.804688 29.5 6.070312 29.011719 C 5.339844 28.519531 4.660156 27.964844 4.035156 27.339844 C 3.414062 26.714844 2.855469 26.039062 2.367188 25.304688 C 1.875 24.570312 1.460938 23.796875 1.125 22.980469 C 0.785156 22.167969 0.53125 21.328125 0.359375 20.460938 C 0.1875 19.597656 0.101562 18.722656 0.101562 17.839844 L 0.101562 15.15625 C 0.101562 14.273438 0.1875 13.398438 0.359375 12.535156 C 0.53125 11.667969 0.785156 10.828125 1.125 10.015625 C 1.460938 9.199219 1.875 8.425781 2.367188 7.691406 C 2.855469 6.957031 3.414062 6.28125 4.035156 5.65625 C 4.660156 5.03125 5.339844 4.476562 6.070312 3.984375 C 6.804688 3.496094 7.578125 3.082031 8.394531 2.742188 C 9.210938 2.40625 10.050781 2.152344 10.914062 1.980469 C 11.777344 1.808594 12.652344 1.722656 13.535156 1.722656 Z M 13.535156 1.722656 " fill-opacity="1" fill-rule="nonzero"/></g><g clip-path="url(#a9532e35e5)"><path fill="#eb6753" d="M 22.113281 16.574219 L 21.359375 15.921875 L 21.359375 22.105469 C 21.359375 23.148438 20.511719 23.992188 19.472656 23.992188 L 17.203125 23.992188 C 17.394531 23.796875 17.59375 23.582031 17.796875 23.347656 C 17.976562 23.140625 18.140625 22.9375 18.296875 22.734375 L 19.472656 22.734375 C 19.816406 22.734375 20.101562 22.453125 20.101562 22.105469 L 20.101562 14.828125 L 14.878906 10.292969 L 9.65625 14.828125 L 9.65625 22.105469 C 9.65625 22.453125 9.9375 22.734375 10.285156 22.734375 L 11.460938 22.734375 C 11.613281 22.9375 11.78125 23.140625 11.957031 23.347656 C 12.160156 23.582031 12.363281 23.796875 12.550781 23.992188 L 10.285156 23.992188 C 9.246094 23.992188 8.398438 23.148438 8.398438 22.105469 L 8.398438 15.921875 L 7.644531 16.574219 L 6.816406 15.625 L 14.878906 8.625 L 22.9375 15.625 Z M 14.878906 17.980469 C 14.355469 17.980469 13.933594 18.40625 13.933594 18.925781 C 13.933594 19.445312 14.355469 19.871094 14.878906 19.871094 C 15.398438 19.871094 15.820312 19.445312 15.820312 18.925781 C 15.820312 18.40625 15.398438 17.980469 14.878906 17.980469 Z M 18.496094 19.117188 C 18.496094 20.117188 17.941406 21.261719 16.847656 22.523438 C 16.074219 23.417969 15.308594 24.042969 15.273438 24.070312 L 14.878906 24.394531 L 14.480469 24.070312 C 14.449219 24.042969 13.683594 23.417969 12.910156 22.523438 C 11.816406 21.261719 11.261719 20.117188 11.261719 19.117188 L 11.261719 18.929688 C 11.261719 16.933594 12.882812 15.3125 14.878906 15.3125 C 16.871094 15.3125 18.496094 16.933594 18.496094 18.929688 Z M 17.238281 18.929688 C 17.238281 17.628906 16.179688 16.570312 14.878906 16.570312 C 13.578125 16.570312 12.519531 17.628906 12.519531 18.929688 L 12.519531 19.117188 C 12.519531 19.785156 12.996094 20.703125 13.859375 21.699219 C 14.234375 22.132812 14.609375 22.496094 14.878906 22.746094 C 15.78125 21.921875 17.238281 20.328125 17.238281 19.117188 Z M 17.238281 18.929688 " fill-opacity="1" fill-rule="nonzero"/></g><g clip-path="url(#1ff2f2fc21)"><path fill="#ffffff" d="M 14.765625 4.105469 C 18.199219 4.105469 21.292969 5.476562 23.542969 7.726562 C 25.773438 9.976562 27.164062 13.070312 27.164062 16.484375 C 27.164062 19.898438 25.773438 23.011719 23.542969 25.242188 C 21.292969 27.492188 18.199219 28.886719 14.765625 28.886719 C 11.347656 28.886719 8.257812 27.492188 6.003906 25.242188 C 3.773438 23.011719 2.382812 19.898438 2.382812 16.484375 C 2.382812 13.070312 3.773438 9.976562 6.011719 7.726562 C 8.261719 5.476562 11.347656 4.105469 14.765625 4.105469 Z M 23.121094 8.160156 C 20.964844 6.023438 18.019531 4.699219 14.765625 4.699219 C 11.507812 4.699219 8.566406 6.023438 6.4375 8.152344 C 4.304688 10.285156 3.003906 13.230469 3.003906 16.480469 C 3.003906 19.730469 4.3125 22.679688 6.4375 24.808594 C 8.5625 26.953125 11.511719 28.261719 14.765625 28.261719 C 18.015625 28.261719 20.964844 26.953125 23.109375 24.808594 C 25.238281 22.679688 26.546875 19.730469 26.546875 16.480469 C 26.546875 13.230469 25.246094 10.285156 23.121094 8.160156 Z M 23.121094 8.160156 " fill-opacity="1" fill-rule="nonzero"/></g><path fill="#ffffff" d="M 12.945312 27.289062 C 16.28125 23.300781 24.953125 18.800781 24.953125 18.800781 C 21.375 21.335938 17.734375 25.351562 15.96875 27.375 C 15.578125 27.414062 15.171875 27.433594 14.757812 27.433594 C 14.152344 27.433594 13.535156 27.390625 12.945312 27.289062 Z M 12.945312 27.289062 " fill-opacity="1" fill-rule="nonzero"/><path fill="#ffffff" d="M 9.203125 25.917969 C 13.515625 22.128906 24.449219 18.613281 24.449219 18.613281 C 18.804688 21.066406 13.480469 25.441406 11.675781 27 C 10.796875 26.742188 9.976562 26.367188 9.203125 25.917969 Z M 9.203125 25.917969 " fill-opacity="1" fill-rule="nonzero"/><path fill="#ffffff" d="M 17.550781 27.082031 C 20.742188 22.503906 24.078125 20.042969 25.390625 19.203125 C 24.894531 21.144531 23.894531 22.863281 22.527344 24.238281 C 21.167969 25.585938 19.457031 26.597656 17.550781 27.082031 Z M 17.550781 27.082031 " fill-opacity="1" fill-rule="nonzero"/><path fill="#ffffff" d="M 4.167969 19.207031 C 5.1875 19.878906 7.457031 21.496094 9.917969 24.386719 C 9.382812 24.738281 8.914062 25.101562 8.484375 25.453125 C 7.949219 25.078125 7.484375 24.679688 7.03125 24.242188 C 5.664062 22.871094 4.65625 21.148438 4.167969 19.207031 Z M 4.167969 19.207031 " fill-opacity="1" fill-rule="nonzero"/><path fill="#ffffff" d="M 4.597656 18.796875 C 4.597656 18.796875 8.34375 20.738281 11.863281 23.210938 C 11.394531 23.480469 10.949219 23.746094 10.492188 24.007812 C 8.746094 22.234375 6.664062 20.273438 4.597656 18.796875 Z M 4.597656 18.796875 " fill-opacity="1" fill-rule="nonzero"/><path fill="#ffffff" d="M 5.082031 18.613281 C 5.082031 18.613281 9.625 20.0625 14.003906 22.109375 C 13.488281 22.359375 13.003906 22.605469 12.527344 22.863281 C 10.347656 21.351562 7.746094 19.777344 5.082031 18.613281 Z M 5.082031 18.613281 " fill-opacity="1" fill-rule="nonzero"/><path fill="#ffffff" d="M 9.589844 18.304688 C 9.589844 17.914062 9.628906 17.550781 9.714844 17.199219 L 3.863281 15.621094 C 3.84375 15.910156 3.824219 16.199219 3.824219 16.480469 C 3.824219 16.808594 3.84375 17.128906 3.863281 17.460938 L 4.664062 17.730469 L 5.3125 17.9375 C 6.046875 18.183594 6.789062 18.453125 7.523438 18.710938 C 7.75 18.769531 7.953125 18.855469 8.171875 18.9375 C 8.6875 19.121094 9.210938 19.332031 9.726562 19.535156 C 9.652344 19.148438 9.589844 18.714844 9.589844 18.304688 Z M 9.589844 18.304688 " fill-opacity="1" fill-rule="nonzero"/><path fill="#ffffff" d="M 3.898438 15.113281 L 9.832031 16.707031 C 9.917969 16.441406 10.039062 16.171875 10.160156 15.933594 L 4.515625 12.664062 C 4.207031 13.433594 4.003906 14.273438 3.898438 15.113281 Z M 3.898438 15.113281 " fill-opacity="1" fill-rule="nonzero"/><path fill="#ffffff" d="M 4.703125 12.183594 L 10.40625 15.472656 C 10.570312 15.246094 10.734375 15.023438 10.941406 14.800781 L 6.03125 9.886719 C 5.496094 10.613281 5.042969 11.371094 4.703125 12.183594 Z M 4.703125 12.183594 " fill-opacity="1" fill-rule="nonzero"/><path fill="#ffffff" d="M 6.332031 9.511719 L 11.285156 14.464844 C 11.511719 14.28125 11.734375 14.089844 11.957031 13.949219 L 8.316406 7.644531 C 7.863281 7.96875 7.4375 8.335938 7.027344 8.75 C 6.785156 8.996094 6.5625 9.242188 6.332031 9.511719 Z M 6.332031 9.511719 " fill-opacity="1" fill-rule="nonzero"/><path fill="#ffffff" d="M 8.746094 7.335938 L 12.410156 13.679688 C 12.65625 13.554688 12.925781 13.453125 13.183594 13.351562 L 11.246094 6.105469 C 10.347656 6.414062 9.511719 6.824219 8.746094 7.335938 Z M 8.746094 7.335938 " fill-opacity="1" fill-rule="nonzero"/><path fill="#ffffff" d="M 11.742188 5.960938 L 13.683594 13.234375 C 13.949219 13.175781 14.238281 13.128906 14.519531 13.128906 L 14.519531 5.535156 C 13.554688 5.554688 12.617188 5.699219 11.742188 5.960938 Z M 11.742188 5.960938 " fill-opacity="1" fill-rule="nonzero"/><path fill="#ffffff" d="M 15.03125 5.535156 L 15.03125 13.128906 C 15.320312 13.128906 15.605469 13.167969 15.871094 13.234375 L 17.8125 5.96875 C 16.941406 5.699219 15.992188 5.554688 15.03125 5.535156 Z M 15.03125 5.535156 " fill-opacity="1" fill-rule="nonzero"/><path fill="#ffffff" d="M 18.308594 6.105469 L 16.363281 13.347656 C 16.632812 13.453125 16.898438 13.554688 17.136719 13.675781 L 20.800781 7.332031 C 20.023438 6.824219 19.191406 6.414062 18.308594 6.105469 Z M 18.308594 6.105469 " fill-opacity="1" fill-rule="nonzero"/><path fill="#ffffff" d="M 21.210938 7.644531 L 17.589844 13.949219 C 17.816406 14.089844 18.039062 14.273438 18.238281 14.464844 L 23.210938 9.511719 C 22.980469 9.242188 22.757812 8.996094 22.515625 8.757812 C 22.109375 8.339844 21.683594 7.976562 21.210938 7.644531 Z M 21.210938 7.644531 " fill-opacity="1" fill-rule="nonzero"/><path fill="#ffffff" d="M 23.523438 9.894531 L 18.609375 14.804688 C 18.792969 15.03125 18.980469 15.257812 19.125 15.480469 L 24.855469 12.183594 C 24.507812 11.371094 24.058594 10.613281 23.523438 9.894531 Z M 23.523438 9.894531 " fill-opacity="1" fill-rule="nonzero"/><path fill="#ffffff" d="M 25.039062 12.660156 L 19.394531 15.929688 C 19.515625 16.179688 19.621094 16.445312 19.71875 16.703125 L 25.632812 15.105469 C 25.535156 14.273438 25.328125 13.433594 25.039062 12.660156 Z M 25.039062 12.660156 " fill-opacity="1" fill-rule="nonzero"/><path fill="#ffffff" d="M 25.699219 15.628906 L 19.847656 17.203125 C 19.933594 17.554688 19.972656 17.917969 19.972656 18.308594 C 19.972656 18.722656 19.914062 19.148438 19.808594 19.539062 C 20.304688 19.355469 20.769531 19.167969 21.242188 19.003906 C 22.222656 18.632812 23.246094 18.269531 24.253906 17.9375 L 24.75 17.773438 L 25.691406 17.445312 C 25.734375 17.140625 25.753906 16.816406 25.753906 16.484375 C 25.738281 16.199219 25.71875 15.910156 25.699219 15.628906 Z M 25.699219 15.628906 " fill-opacity="1" fill-rule="nonzero"/></svg>